<svg id="Layer_1" data-name="Layer 1" xmlns="http://www.w3.org/2000/svg" viewBox="0 0 103.94 125.27"><defs><style>.cls-1{fill:#251d59;}.cls-2{fill:#875e8c;}.cls-3{fill:#4a3259;}.cls-4{fill:#ffeae6;}.cls-5{fill:#161426;}.cls-6{fill:#6e142c;}</style></defs><path class="cls-1" d="M95,83.11a1.22,1.22,0,0,0,.83,1.45,7.74,7.74,0,0,0,3.79.42,10.28,10.28,0,0,0,1.82-.44c.3-.1.59-.21.88-.33s.54-.26.8-.4A14.11,14.11,0,0,0,106.71,81l.28-.31.27-.32L107,79.6a14.49,14.49,0,0,0-.58-1.35,15.53,15.53,0,0,0-1.69-2.61,10.89,10.89,0,0,0-2.8-2.42,7.71,7.71,0,0,0-3.66-1.06,1.11,1.11,0,1,0-.13,2.2,5.23,5.23,0,0,1,2,.64,7.45,7.45,0,0,1,1.78,1.36,11.74,11.74,0,0,1,2.34,3.44A12.07,12.07,0,0,1,102.76,81a10.52,10.52,0,0,1-2,1.08,6.34,6.34,0,0,1-4.28.39A1.21,1.21,0,0,0,95,83.11Z" transform="translate(-8.03 -4.86)"/><path class="cls-1" d="M96.5,81a5,5,0,0,0,3.34-.34,7,7,0,0,0,1.6-1l.19-.16.19-.17-.23-.47a7.42,7.42,0,0,0-1.09-1.51,5.07,5.07,0,0,0-3-1.59.68.68,0,0,0-.8.51.7.7,0,0,0,.64.72A4.36,4.36,0,0,1,100,79a4.3,4.3,0,0,1-3.19.82A.63.63,0,1,0,96.5,81Z" transform="translate(-8.03 -4.86)"/><path class="cls-1" d="M104.53,88.59l-4.88-1.93a.71.71,0,0,0-.93.37.72.72,0,0,0,.4.92l4.82,2.1a.75.75,0,0,0,1-.45A.76.76,0,0,0,104.53,88.59Z" transform="translate(-8.03 -4.86)"/><path class="cls-1" d="M107.65,89.82l-.57-.23a.84.84,0,0,0-.64,1.54l.57.25a.79.79,0,0,0,1-.49A.8.8,0,0,0,107.65,89.82Z" transform="translate(-8.03 -4.86)"/><path class="cls-1" d="M99.53,92.4a10.81,10.81,0,0,0-1.65-3.31,7.86,7.86,0,0,0-3-2.39,1.11,1.11,0,1,0-1,2A6.26,6.26,0,0,1,96.69,92a12.12,12.12,0,0,1,.84,4.08,12.7,12.7,0,0,1-1.86.54c-.35.08-.72.14-1.08.19s-.77.06-1.15.06a8.15,8.15,0,0,1-2.22-.3,5.14,5.14,0,0,1-1.88-1,1.23,1.23,0,0,0-1.69,0,1.13,1.13,0,0,0-.23.82,1.43,1.43,0,0,0,.45.85,7.75,7.75,0,0,0,3.34,1.83,10.47,10.47,0,0,0,3.68.27,15.76,15.76,0,0,0,1.67-.27l.74-.18.63-.2c.79-.27,1.3-.51,1.38-.54l.38-.18.37-.18,0-.84c0-.08,0-.65,0-1.48A15,15,0,0,0,99.53,92.4Z" transform="translate(-8.03 -4.86)"/><path class="cls-1" d="M89.9,94.17a5,5,0,0,0,3.22,1A7.45,7.45,0,0,0,95,94.85l.25-.08.24-.09,0-.51A7.09,7.09,0,0,0,95,92.35a5,5,0,0,0-2.12-2.61.68.68,0,0,0-.94.16.71.71,0,0,0,.31.91,4.32,4.32,0,0,1,1.67,2.84,4.39,4.39,0,0,1-3.26-.47.67.67,0,0,0-1,.07A.66.66,0,0,0,89.9,94.17Z" transform="translate(-8.03 -4.86)"/><path class="cls-1" d="M90.63,100.63a.71.71,0,0,0-1,0,.7.7,0,0,0,0,1l3.65,3.78a.79.79,0,0,0,1.11-1.12Z" transform="translate(-8.03 -4.86)"/><path class="cls-1" d="M96.37,106.18a.84.84,0,0,0-1.18,1.18l.43.45a.81.81,0,0,0,1.13-.07.79.79,0,0,0,.06-1.12Z" transform="translate(-8.03 -4.86)"/><path class="cls-1" d="M86.22,98.86a1.36,1.36,0,0,0-.85-.44,1.08,1.08,0,0,0-.81.23,1.22,1.22,0,0,0,0,1.68,5.12,5.12,0,0,1,1,1.88,7.78,7.78,0,0,1,.3,2.22,11.07,11.07,0,0,1-.06,1.15c0,.37-.11.73-.19,1.08a11.58,11.58,0,0,1-.54,1.86,11.8,11.8,0,0,1-4.07-.83,6.26,6.26,0,0,1-3.31-2.75,1.11,1.11,0,1,0-2,1,7.81,7.81,0,0,0,2.39,3,10.9,10.9,0,0,0,3.3,1.66,15.78,15.78,0,0,0,3.06.56,14,14,0,0,0,1.48,0l.83,0s.1-.18.19-.38.17-.38.17-.38a11.9,11.9,0,0,0,.55-1.38l.2-.63c.06-.23.12-.48.18-.74a16,16,0,0,0,.27-1.66,11,11,0,0,0-.27-3.69A7.67,7.67,0,0,0,86.22,98.86Z" transform="translate(-8.03 -4.86)"/><path class="cls-1" d="M81.35,106a7,7,0,0,0,1.82.42l.52,0,.08-.24.08-.25a7.21,7.21,0,0,0,.3-1.85,5,5,0,0,0-1-3.22.63.63,0,1,0-1,.75,4.41,4.41,0,0,1,.47,3.27,4.38,4.38,0,0,1-2.84-1.68.71.71,0,0,0-.91-.31.69.69,0,0,0-.17.94A5.11,5.11,0,0,0,81.35,106Z" transform="translate(-8.03 -4.86)"/><path class="cls-1" d="M79.05,114.93,77,110.11a.73.73,0,0,0-.92-.4.71.71,0,0,0-.38.93l1.94,4.89a.77.77,0,0,0,1,.39A.76.76,0,0,0,79.05,114.93Z" transform="translate(-8.03 -4.86)"/><path class="cls-1" d="M80.14,117.44a.79.79,0,0,0-1-.35.77.77,0,0,0-.49,1l.23.58a.79.79,0,0,0,1.06.36.77.77,0,0,0,.5-1Z" transform="translate(-8.03 -4.86)"/><path class="cls-1" d="M72.11,106a1.23,1.23,0,0,0-.62,1.57,6.26,6.26,0,0,1-.39,4.27,10,10,0,0,1-1.08,2,11.38,11.38,0,0,1-1.22,1.51,11.75,11.75,0,0,1-3.44-2.33A7.72,7.72,0,0,1,64,111.15a5.21,5.21,0,0,1-.63-2,1.12,1.12,0,1,0-2.21.13,7.79,7.79,0,0,0,1.07,3.67,11.18,11.18,0,0,0,2.41,2.79,16.06,16.06,0,0,0,2.61,1.7,14.06,14.06,0,0,0,1.36.58l.79.27.31-.26.31-.29a14.27,14.27,0,0,0,2.8-3.63c.14-.26.27-.52.4-.8s.23-.58.33-.87a9.55,9.55,0,0,0,.43-1.83,7.57,7.57,0,0,0-.41-3.78A1.24,1.24,0,0,0,72.11,106Z" transform="translate(-8.03 -4.86)"/><path class="cls-1" d="M66.35,111.5a6.89,6.89,0,0,0,1.51,1.08l.46.24.17-.19a1.94,1.94,0,0,0,.17-.2,6.9,6.9,0,0,0,1-1.6,5,5,0,0,0,.35-3.34.63.63,0,1,0-1.21.31A4.28,4.28,0,0,1,68,111a4.35,4.35,0,0,1-2-2.63.72.72,0,0,0-.72-.64.69.69,0,0,0-.52.81A5.09,5.09,0,0,0,66.35,111.5Z" transform="translate(-8.03 -4.86)"/><path class="cls-1" d="M60,112.89a.71.71,0,0,0-.7.72l-.09,5.25a.79.79,0,0,0,1.58,0l-.09-5.25A.71.71,0,0,0,60,112.89Z" transform="translate(-8.03 -4.86)"/><path class="cls-1" d="M60,120.88a.78.78,0,0,0-.83.71v.62a.84.84,0,0,0,1.68,0v-.62A.78.78,0,0,0,60,120.88Z" transform="translate(-8.03 -4.86)"/><path class="cls-1" d="M57.81,107.92a1.21,1.21,0,0,0-1.18,1.19,5.26,5.26,0,0,1-.63,2,7.67,7.67,0,0,1-1.36,1.77,11.91,11.91,0,0,1-3.45,2.34A11.37,11.37,0,0,1,50,113.75a10,10,0,0,1-1.08-2,6.26,6.26,0,0,1-.39-4.27,1.11,1.11,0,1,0-2.08-.73,7.57,7.57,0,0,0-.41,3.78,9.55,9.55,0,0,0,.43,1.83c.1.29.21.59.33.87s.26.54.4.81A14.34,14.34,0,0,0,50,117.7l.31.29.31.26.79-.27a14.06,14.06,0,0,0,1.36-.58,16.06,16.06,0,0,0,2.61-1.7,11.18,11.18,0,0,0,2.41-2.79,7.79,7.79,0,0,0,1.07-3.67A1.22,1.22,0,0,0,57.81,107.92Z" transform="translate(-8.03 -4.86)"/><path class="cls-1" d="M51.34,112.43a1.94,1.94,0,0,0,.17.2l.17.19.46-.24a6.89,6.89,0,0,0,1.51-1.08,5.09,5.09,0,0,0,1.6-3,.69.69,0,0,0-.52-.81.72.72,0,0,0-.72.64A4.3,4.3,0,0,1,52,111a4.3,4.3,0,0,1-.82-3.19.63.63,0,1,0-1.21-.31,5,5,0,0,0,.35,3.34A7.3,7.3,0,0,0,51.34,112.43Z" transform="translate(-8.03 -4.86)"/><path class="cls-1" d="M44,109.71a.73.73,0,0,0-.92.4L41,114.93a.79.79,0,0,0,1.45.6l1.94-4.89A.71.71,0,0,0,44,109.71Z" transform="translate(-8.03 -4.86)"/><path class="cls-1" d="M40.91,117.09a.79.79,0,0,0-1,.35l-.25.57a.77.77,0,0,0,.5,1,.79.79,0,0,0,1.06-.36l.23-.58A.77.77,0,0,0,40.91,117.09Z" transform="translate(-8.03 -4.86)"/><path class="cls-1" d="M43.85,104.29a1.2,1.2,0,0,0-1.54.65A6.25,6.25,0,0,1,39,107.68a11.84,11.84,0,0,1-4.08.84,12.7,12.7,0,0,1-.54-1.86c-.07-.35-.14-.71-.18-1.08a10.88,10.88,0,0,1-.06-1.14,8,8,0,0,1,.29-2.22,5.34,5.34,0,0,1,1-1.89,1.22,1.22,0,0,0,0-1.68,1.08,1.08,0,0,0-.81-.23,1.36,1.36,0,0,0-.85.44,7.67,7.67,0,0,0-1.84,3.34,11,11,0,0,0-.27,3.69,16,16,0,0,0,.27,1.66c.06.26.12.51.18.74l.2.64a12.2,12.2,0,0,0,.55,1.37s.08.19.17.38.19.38.19.38l.83,0a14,14,0,0,0,1.48,0,15.78,15.78,0,0,0,3.06-.56,10.9,10.9,0,0,0,3.3-1.66,7.81,7.81,0,0,0,2.39-3A1.2,1.2,0,0,0,43.85,104.29Z" transform="translate(-8.03 -4.86)"/><path class="cls-1" d="M36.15,106l.08.25.08.24.52,0a7,7,0,0,0,1.82-.42,5.11,5.11,0,0,0,2.61-2.13.69.69,0,0,0-.17-.94.71.71,0,0,0-.91.31,4.34,4.34,0,0,1-2.83,1.68,4.35,4.35,0,0,1,.46-3.27.63.63,0,1,0-1-.75,5,5,0,0,0-1,3.22A7.21,7.21,0,0,0,36.15,106Z" transform="translate(-8.03 -4.86)"/><path class="cls-1" d="M28.79,99.05a7.75,7.75,0,0,0,3.34-1.83,1.43,1.43,0,0,0,.45-.85,1.13,1.13,0,0,0-.23-.82,1.23,1.23,0,0,0-1.69,0,5.21,5.21,0,0,1-1.88,1,8.09,8.09,0,0,1-2.22.29,10.74,10.74,0,0,1-1.14-.06c-.37,0-.73-.11-1.08-.18a12.5,12.5,0,0,1-1.87-.54A11.85,11.85,0,0,1,23.3,92a6.36,6.36,0,0,1,2.76-3.31,1.11,1.11,0,1,0-1-2,7.86,7.86,0,0,0-3,2.39,10.81,10.81,0,0,0-1.65,3.31,15,15,0,0,0-.56,3c-.05.83,0,1.4,0,1.48l.05.84.37.18.38.18c.08,0,.59.27,1.38.54l.63.2.74.18a15.76,15.76,0,0,0,1.67.27A10.47,10.47,0,0,0,28.79,99.05Z" transform="translate(-8.03 -4.86)"/><path class="cls-1" d="M25,92.35a7.09,7.09,0,0,0-.43,1.82l0,.51.24.09.25.08a7.45,7.45,0,0,0,1.85.29,5,5,0,0,0,3.22-1,.66.66,0,0,0,.2-.92.68.68,0,0,0-.95-.07,4.29,4.29,0,0,1-3.26.47,4.4,4.4,0,0,1,1.67-2.84.71.71,0,0,0,.31-.91.68.68,0,0,0-.94-.16A5,5,0,0,0,25,92.35Z" transform="translate(-8.03 -4.86)"/><path class="cls-1" d="M21.28,87a.71.71,0,0,0-.93-.37l-4.88,1.93a.76.76,0,0,0-.39,1,.75.75,0,0,0,1,.45L20.88,88A.72.72,0,0,0,21.28,87Z" transform="translate(-8.03 -4.86)"/><path class="cls-1" d="M29.37,100.63l-3.77,3.65a.79.79,0,0,0,1.11,1.12l3.65-3.78a.7.7,0,0,0,0-1A.71.71,0,0,0,29.37,100.63Z" transform="translate(-8.03 -4.86)"/><path class="cls-1" d="M23.63,106.19l-.44.43a.79.79,0,0,0,.06,1.12.81.81,0,0,0,1.13.07l.43-.45a.84.84,0,0,0-1.18-1.17Z" transform="translate(-8.03 -4.86)"/><path class="cls-1" d="M15.29,75.64a15.53,15.53,0,0,0-1.69,2.61A14.49,14.49,0,0,0,13,79.6l-.28.79.27.32.28.31a14.11,14.11,0,0,0,3.63,2.79c.26.14.52.28.8.4s.58.23.88.33a10.28,10.28,0,0,0,1.82.44,7.74,7.74,0,0,0,3.79-.42,1.11,1.11,0,1,0-.73-2.07,6.29,6.29,0,0,1-4.28-.4,10,10,0,0,1-2-1.08,12.07,12.07,0,0,1-1.51-1.21,11.91,11.91,0,0,1,2.34-3.45A7.36,7.36,0,0,1,19.84,75a5.28,5.28,0,0,1,2-.64,1.11,1.11,0,1,0-.13-2.2,7.71,7.71,0,0,0-3.66,1.06A10.89,10.89,0,0,0,15.29,75.64Z" transform="translate(-8.03 -4.86)"/><path class="cls-1" d="M22.47,75.75a5.07,5.07,0,0,0-3,1.59,7.42,7.42,0,0,0-1.09,1.51l-.23.47.19.17.19.17a7.61,7.61,0,0,0,1.6,1A5,5,0,0,0,23.5,81,.68.68,0,0,0,24,80.2a.66.66,0,0,0-.85-.42A4.37,4.37,0,0,1,20,79a4.33,4.33,0,0,1,2.63-2,.7.7,0,0,0,.64-.72A.68.68,0,0,0,22.47,75.75Z" transform="translate(-8.03 -4.86)"/><path class="cls-1" d="M17.38,71.7A.71.71,0,0,0,18.1,71a.71.71,0,0,0-.72-.7l-5.25-.08a.79.79,0,0,0,0,1.57Z" transform="translate(-8.03 -4.86)"/><path class="cls-1" d="M12.92,89.59l-.57.23A.81.81,0,0,0,12,90.89a.79.79,0,0,0,1,.49l.57-.25a.84.84,0,0,0-.64-1.54Z" transform="translate(-8.03 -4.86)"/><path class="cls-1" d="M25,58.88a1.23,1.23,0,0,0-.83-1.46A7.85,7.85,0,0,0,20.42,57a10.25,10.25,0,0,0-1.82.43c-.3.1-.59.22-.88.34s-.54.26-.8.39A14.27,14.27,0,0,0,13.29,61l-.28.31-.27.32.28.79a14.49,14.49,0,0,0,.58,1.35,15.53,15.53,0,0,0,1.69,2.61,10.89,10.89,0,0,0,2.8,2.42,7.82,7.82,0,0,0,3.66,1.06,1.11,1.11,0,1,0,.13-2.2,5.23,5.23,0,0,1-2-.64,7.72,7.72,0,0,1-1.78-1.36,12,12,0,0,1-2.34-3.44A12.07,12.07,0,0,1,17.24,61a10,10,0,0,1,2-1.08,6.28,6.28,0,0,1,4.28-.39A1.22,1.22,0,0,0,25,58.88Z" transform="translate(-8.03 -4.86)"/><path class="cls-1" d="M23.19,62.21A.63.63,0,1,0,23.5,61a5,5,0,0,0-3.34.34,7.61,7.61,0,0,0-1.6,1l-.19.17-.19.17.23.46a7.34,7.34,0,0,0,1.09,1.52,5.07,5.07,0,0,0,3,1.59.68.68,0,0,0,.8-.51.7.7,0,0,0-.64-.72A4.34,4.34,0,0,1,20,63,4.38,4.38,0,0,1,23.19,62.21Z" transform="translate(-8.03 -4.86)"/><path class="cls-1" d="M15.47,53.4l4.88,1.93a.71.71,0,0,0,.93-.37.73.73,0,0,0-.4-.93l-4.82-2.09a.75.75,0,0,0-1,.45A.76.76,0,0,0,15.47,53.4Z" transform="translate(-8.03 -4.86)"/><path class="cls-1" d="M12.35,52.17l.57.22a.79.79,0,0,0,1-.49.81.81,0,0,0-.35-1L13,50.61a.79.79,0,0,0-1,.49A.8.8,0,0,0,12.35,52.17Z" transform="translate(-8.03 -4.86)"/><path class="cls-1" d="M9.4,70.16H8.78A.81.81,0,0,0,8,71a.8.8,0,0,0,.75.84H9.4a.84.84,0,0,0,0-1.66Z" transform="translate(-8.03 -4.86)"/><path class="cls-1" d="M20.47,49.59a10.81,10.81,0,0,0,1.65,3.31,7.75,7.75,0,0,0,3,2.38,1.2,1.2,0,0,0,1.61-.44,1.21,1.21,0,0,0-.65-1.54A6.2,6.2,0,0,1,23.31,50a12.12,12.12,0,0,1-.84-4.08,12.7,12.7,0,0,1,1.86-.54c.35-.08.72-.14,1.08-.19a11.07,11.07,0,0,1,1.15-.06,7.78,7.78,0,0,1,2.22.3,5.12,5.12,0,0,1,1.88,1,1.21,1.21,0,0,0,1.69,0,1.11,1.11,0,0,0,.23-.81,1.43,1.43,0,0,0-.45-.85,7.77,7.77,0,0,0-3.34-1.84,10.71,10.71,0,0,0-3.68-.26,13.55,13.55,0,0,0-1.67.27c-.25.05-.5.11-.74.18l-.63.2a11.69,11.69,0,0,0-1.38.54l-.38.18c-.19.08-.37.18-.37.18l-.05.84c0,.08,0,.65,0,1.47A14.94,14.94,0,0,0,20.47,49.59Z" transform="translate(-8.03 -4.86)"/><path class="cls-1" d="M30.3,48.74a.67.67,0,0,0-.2-.93,5,5,0,0,0-3.22-1,7,7,0,0,0-1.85.29l-.25.08-.24.09,0,.51A7.09,7.09,0,0,0,25,49.64a5,5,0,0,0,2.12,2.61.67.67,0,0,0,.94-.17.7.7,0,0,0-.31-.9,4.37,4.37,0,0,1-1.67-2.84,4.39,4.39,0,0,1,3.26.47A.68.68,0,0,0,30.3,48.74Z" transform="translate(-8.03 -4.86)"/><path class="cls-1" d="M29.37,41.36a.7.7,0,1,0,1-1l-3.65-3.77a.77.77,0,0,0-1.09,0,.76.76,0,0,0,0,1.08Z" transform="translate(-8.03 -4.86)"/><path class="cls-1" d="M23.63,35.8a.84.84,0,0,0,1.18-1.17l-.43-.45a.82.82,0,0,0-1.13.06.8.8,0,0,0-.06,1.13Z" transform="translate(-8.03 -4.86)"/><path class="cls-1" d="M33.78,43.13a1.47,1.47,0,0,0,.85.44,1.08,1.08,0,0,0,.81-.23,1.22,1.22,0,0,0,0-1.68,5.17,5.17,0,0,1-1-1.89,7.66,7.66,0,0,1-.3-2.21,10.93,10.93,0,0,1,.06-1.15c0-.37.11-.73.19-1.08a11.72,11.72,0,0,1,.54-1.87A12.07,12.07,0,0,1,39,34.3a6.26,6.26,0,0,1,3.31,2.75,1.11,1.11,0,1,0,2-1,7.67,7.67,0,0,0-2.39-3,10.9,10.9,0,0,0-3.3-1.66,15.78,15.78,0,0,0-3.06-.56,11.46,11.46,0,0,0-1.48,0l-.83,0s-.1.18-.19.37l-.17.38a14,14,0,0,0-.55,1.38l-.2.64c-.06.23-.12.48-.18.74a16,16,0,0,0-.27,1.66,11,11,0,0,0,.27,3.69A7.72,7.72,0,0,0,33.78,43.13Z" transform="translate(-8.03 -4.86)"/><path class="cls-1" d="M38.65,36a7,7,0,0,0-1.82-.42l-.52,0-.08.24-.08.25a7.21,7.21,0,0,0-.3,1.85,5,5,0,0,0,1,3.21.69.69,0,0,0,.93.21.68.68,0,0,0,.06-.95,4.41,4.41,0,0,1-.47-3.27,4.38,4.38,0,0,1,2.84,1.68.71.71,0,0,0,.91.31.69.69,0,0,0,.17-.94A5.06,5.06,0,0,0,38.65,36Z" transform="translate(-8.03 -4.86)"/><path class="cls-1" d="M41,27.06,43,31.88a.7.7,0,1,0,1.3-.54L42.4,26.46a.79.79,0,0,0-1.45.6Z" transform="translate(-8.03 -4.86)"/><path class="cls-1" d="M39.86,24.55a.79.79,0,0,0,1,.35.77.77,0,0,0,.49-1l-.23-.58A.8.8,0,0,0,40.11,23a.79.79,0,0,0-.5,1Z" transform="translate(-8.03 -4.86)"/><path class="cls-1" d="M47.89,36a1.23,1.23,0,0,0,.62-1.57,6.26,6.26,0,0,1,.39-4.27,10,10,0,0,1,1.08-2,11.53,11.53,0,0,1,1.22-1.52,12,12,0,0,1,3.44,2.34A7.89,7.89,0,0,1,56,30.83a5.31,5.31,0,0,1,.63,2,1.21,1.21,0,0,0,1.18,1.2,1.23,1.23,0,0,0,1-1.32,7.76,7.76,0,0,0-1.07-3.67,11,11,0,0,0-2.41-2.79,15.42,15.42,0,0,0-2.61-1.7A14.06,14.06,0,0,0,51.39,24l-.79-.28-.31.27-.31.29a14.12,14.12,0,0,0-2.8,3.62c-.14.26-.27.53-.4.81s-.23.57-.33.87A9.55,9.55,0,0,0,46,31.42a7.58,7.58,0,0,0,.41,3.78A1.25,1.25,0,0,0,47.89,36Z" transform="translate(-8.03 -4.86)"/><path class="cls-1" d="M54,33.63a.71.71,0,0,0,.72.63.68.68,0,0,0,.52-.8,5.06,5.06,0,0,0-1.6-3,7.13,7.13,0,0,0-1.51-1.09l-.46-.23-.17.19c-.09.09-.17.19-.17.19a7.17,7.17,0,0,0-1,1.6A5,5,0,0,0,50,34.49a.63.63,0,1,0,1.21-.3A4.31,4.31,0,0,1,52,31,4.38,4.38,0,0,1,54,33.63Z" transform="translate(-8.03 -4.86)"/><path class="cls-1" d="M62.19,34.07a1.21,1.21,0,0,0,1.18-1.2,5.21,5.21,0,0,1,.63-2,7.67,7.67,0,0,1,1.36-1.77,12,12,0,0,1,3.45-2.35A11.52,11.52,0,0,1,70,28.24a9.61,9.61,0,0,1,1.08,2,6.28,6.28,0,0,1,.39,4.28A1.23,1.23,0,0,0,72.11,36a1.25,1.25,0,0,0,1.46-.84A7.58,7.58,0,0,0,74,31.42a9.55,9.55,0,0,0-.43-1.83q-.15-.45-.33-.87c-.13-.28-.26-.55-.4-.81A14.12,14.12,0,0,0,70,24.29L69.71,24l-.31-.27-.79.28a14.06,14.06,0,0,0-1.36.58,15.42,15.42,0,0,0-2.61,1.7,11,11,0,0,0-2.41,2.79,7.76,7.76,0,0,0-1.07,3.67A1.23,1.23,0,0,0,62.19,34.07Z" transform="translate(-8.03 -4.86)"/><path class="cls-1" d="M68.66,29.55s-.08-.1-.17-.19l-.17-.19-.46.23a7.13,7.13,0,0,0-1.51,1.09,5.06,5.06,0,0,0-1.6,3,.68.68,0,0,0,.52.8.71.71,0,0,0,.72-.63A4.35,4.35,0,0,1,68,31a4.33,4.33,0,0,1,.82,3.2.63.63,0,1,0,1.21.3,5,5,0,0,0-.35-3.34A7.61,7.61,0,0,0,68.66,29.55Z" transform="translate(-8.03 -4.86)"/><path class="cls-1" d="M76,32.28a.73.73,0,0,0,.92-.4l2.09-4.82a.79.79,0,0,0-1.45-.6l-1.94,4.88A.72.72,0,0,0,76,32.28Z" transform="translate(-8.03 -4.86)"/><path class="cls-1" d="M60.79,23.13a.79.79,0,0,0-1.58,0l.09,5.25a.7.7,0,1,0,1.4,0Z" transform="translate(-8.03 -4.86)"/><path class="cls-1" d="M79.09,24.9a.79.79,0,0,0,1-.35l.25-.57a.79.79,0,0,0-.5-1,.8.8,0,0,0-1.06.37l-.23.58A.77.77,0,0,0,79.09,24.9Z" transform="translate(-8.03 -4.86)"/><path class="cls-1" d="M60,21.11a.78.78,0,0,0,.83-.71v-.63a.85.85,0,0,0-1.68,0v.63A.78.78,0,0,0,60,21.11Z" transform="translate(-8.03 -4.86)"/><path class="cls-1" d="M76.15,37.7a1.2,1.2,0,0,0,1.54-.65A6.31,6.31,0,0,1,81,34.3a11.8,11.8,0,0,1,4.08-.83,12.35,12.35,0,0,1,.54,1.86c.07.35.14.71.18,1.08a10.88,10.88,0,0,1,.06,1.14,8.09,8.09,0,0,1-.29,2.22,5.34,5.34,0,0,1-1,1.89,1.22,1.22,0,0,0,0,1.68,1.08,1.08,0,0,0,.81.23,1.47,1.47,0,0,0,.85-.44,7.72,7.72,0,0,0,1.84-3.34,11,11,0,0,0,.27-3.69,16,16,0,0,0-.27-1.66c-.06-.26-.12-.51-.18-.74l-.2-.64a14,14,0,0,0-.55-1.38s-.08-.19-.17-.38-.19-.37-.19-.37l-.83,0a11.46,11.46,0,0,0-1.48,0,15.78,15.78,0,0,0-3.06.56,10.9,10.9,0,0,0-3.3,1.66,7.67,7.67,0,0,0-2.39,3A1.2,1.2,0,0,0,76.15,37.7Z" transform="translate(-8.03 -4.86)"/><path class="cls-1" d="M83.85,36l-.08-.25-.08-.24-.52,0a7,7,0,0,0-1.82.42,5.06,5.06,0,0,0-2.61,2.13.69.69,0,0,0,.17.94.71.71,0,0,0,.91-.32,4.37,4.37,0,0,1,2.83-1.67,4.35,4.35,0,0,1-.46,3.27.67.67,0,0,0,.06.94.67.67,0,0,0,.93-.2,5,5,0,0,0,1-3.21A7.21,7.21,0,0,0,83.85,36Z" transform="translate(-8.03 -4.86)"/><path class="cls-1" d="M91.21,42.93a7.77,7.77,0,0,0-3.34,1.84,1.43,1.43,0,0,0-.45.85,1.11,1.11,0,0,0,.23.81,1.21,1.21,0,0,0,1.69,0,5,5,0,0,1,1.88-1,8.09,8.09,0,0,1,2.22-.29,10.74,10.74,0,0,1,1.14.06c.37,0,.73.11,1.08.18a12.5,12.5,0,0,1,1.87.54A11.85,11.85,0,0,1,96.7,50a6.3,6.3,0,0,1-2.76,3.3,1.21,1.21,0,0,0-.65,1.54,1.2,1.2,0,0,0,1.61.44,7.75,7.75,0,0,0,3-2.38,10.81,10.81,0,0,0,1.65-3.31,14.94,14.94,0,0,0,.56-3.06c0-.82,0-1.39,0-1.47l0-.84s-.18-.1-.37-.18l-.38-.18a11.69,11.69,0,0,0-1.38-.54l-.63-.2c-.24-.07-.49-.13-.74-.18a13.55,13.55,0,0,0-1.67-.27A10.71,10.71,0,0,0,91.21,42.93Z" transform="translate(-8.03 -4.86)"/><path class="cls-1" d="M95,49.64a7.09,7.09,0,0,0,.43-1.82l0-.51-.24-.09L95,47.14a7,7,0,0,0-1.85-.29,5,5,0,0,0-3.22,1,.63.63,0,1,0,.75,1,4.29,4.29,0,0,1,3.26-.47,4.43,4.43,0,0,1-1.67,2.84.7.7,0,0,0-.31.9.67.67,0,0,0,.94.17A5,5,0,0,0,95,49.64Z" transform="translate(-8.03 -4.86)"/><path class="cls-1" d="M98.72,55a.71.71,0,0,0,.93.37l4.88-1.93a.77.77,0,0,0,.39-1,.75.75,0,0,0-1-.44L99.12,54A.73.73,0,0,0,98.72,55Z" transform="translate(-8.03 -4.86)"/><path class="cls-1" d="M90.63,41.35,94.4,37.7a.76.76,0,0,0,0-1.08.77.77,0,0,0-1.09,0l-3.65,3.77a.71.71,0,0,0,0,1A.7.7,0,0,0,90.63,41.35Z" transform="translate(-8.03 -4.86)"/><path class="cls-1" d="M96.37,35.8l.44-.43a.8.8,0,0,0-.06-1.13.82.82,0,0,0-1.13-.06l-.43.45a.84.84,0,0,0,1.18,1.17Z" transform="translate(-8.03 -4.86)"/><path class="cls-1" d="M104.71,66.35a15.53,15.53,0,0,0,1.69-2.61c.36-.74.55-1.28.58-1.35l.28-.79-.27-.32-.28-.31a14.27,14.27,0,0,0-3.63-2.8c-.26-.13-.52-.27-.8-.39s-.58-.24-.88-.34A9.45,9.45,0,0,0,99.58,57a7.85,7.85,0,0,0-3.79.41A1.23,1.23,0,0,0,95,58.88a1.22,1.22,0,0,0,1.56.62,6.29,6.29,0,0,1,4.28.4,9.94,9.94,0,0,1,2,1.07,12.07,12.07,0,0,1,1.51,1.22,11.87,11.87,0,0,1-2.34,3.44A7.67,7.67,0,0,1,100.16,67a5.28,5.28,0,0,1-2,.64,1.11,1.11,0,1,0,.13,2.2,7.82,7.82,0,0,0,3.66-1.06A10.89,10.89,0,0,0,104.71,66.35Z" transform="translate(-8.03 -4.86)"/><path class="cls-1" d="M97.37,65a.69.69,0,0,0-.64.71.68.68,0,0,0,.8.52,5.07,5.07,0,0,0,3-1.59,7.34,7.34,0,0,0,1.09-1.52l.23-.46-.19-.17-.19-.17a7.61,7.61,0,0,0-1.6-1A5,5,0,0,0,96.5,61a.63.63,0,1,0,.31,1.2A4.33,4.33,0,0,1,100,63,4.4,4.4,0,0,1,97.37,65Z" transform="translate(-8.03 -4.86)"/><path class="cls-1" d="M107.87,70.21l-5.25.08a.71.71,0,0,0-.72.7.71.71,0,0,0,.72.71l5.25.08a.79.79,0,0,0,0-1.57Z" transform="translate(-8.03 -4.86)"/><path class="cls-1" d="M111.22,70.15h-.62a.84.84,0,0,0,0,1.66h.62A.8.8,0,0,0,112,71,.81.81,0,0,0,111.22,70.15Z" transform="translate(-8.03 -4.86)"/><path class="cls-1" d="M107.08,52.39l.57-.22A.8.8,0,0,0,108,51.1a.79.79,0,0,0-1-.49l-.57.24a.81.81,0,0,0-.35,1A.79.79,0,0,0,107.08,52.39Z" transform="translate(-8.03 -4.86)"/><path class="cls-1" d="M65,104.79h.08a.54.54,0,0,0,.46-.62.56.56,0,0,0-.62-.47.57.57,0,0,0-.47.63A.56.56,0,0,0,65,104.79Z" transform="translate(-8.03 -4.86)"/><path class="cls-1" d="M84.65,94.41a.53.53,0,0,0,.4-.18c.57-.61,1.13-1.26,1.65-1.92a0,0,0,0,0,0,0c.53-.66,1-1.36,1.52-2.06a.51.51,0,0,0,.09-.41.56.56,0,0,0-.23-.35.55.55,0,0,0-.76.14h0c-.46.68-.95,1.34-1.46,2h0c-.52.64-1.06,1.27-1.62,1.88a.56.56,0,0,0,0,.77A.54.54,0,0,0,84.65,94.41Z" transform="translate(-8.03 -4.86)"/><path class="cls-1" d="M88.61,54.41h0c.41.71.8,1.44,1.15,2.18a.57.57,0,0,0,.5.31.57.57,0,0,0,.52-.37.51.51,0,0,0,0-.42c-.37-.77-.77-1.53-1.19-2.25s-.89-1.46-1.37-2.16a.57.57,0,0,0-.76-.15.49.49,0,0,0-.23.36.54.54,0,0,0,.08.41c.46.66.9,1.36,1.31,2.06Z" transform="translate(-8.03 -4.86)"/><path class="cls-1" d="M32.51,51.63a.58.58,0,0,0-.77.14c-.47.71-.93,1.43-1.34,2.15v0c-.43.74-.83,1.5-1.2,2.26a.54.54,0,0,0,.26.73.48.48,0,0,0,.24.06.56.56,0,0,0,.49-.31c.36-.74.75-1.48,1.16-2.19s.85-1.41,1.31-2.1A.55.55,0,0,0,32.51,51.63Z" transform="translate(-8.03 -4.86)"/><path class="cls-1" d="M91.28,59.2a.65.65,0,0,0,.2,0,.55.55,0,1,0-.4-1,.52.52,0,0,0-.31.29.56.56,0,0,0,0,.42A.54.54,0,0,0,91.28,59.2Z" transform="translate(-8.03 -4.86)"/><path class="cls-1" d="M76.29,100a.56.56,0,0,0,0,.42.57.57,0,0,0,.48.27.64.64,0,0,0,.27-.07c.73-.42,1.46-.88,2.16-1.37s1.39-1,2.06-1.51a.56.56,0,0,0,.08-.78.57.57,0,0,0-.76-.09h0c-.65.52-1.31,1-2,1.47s-1.38.91-2.09,1.31A.51.51,0,0,0,76.29,100Z" transform="translate(-8.03 -4.86)"/><path class="cls-1" d="M90.06,86.08a.59.59,0,0,0,.23,0,.54.54,0,0,0,.5-.31c.37-.76.71-1.55,1-2.34s.59-1.6.84-2.42a.54.54,0,0,0-.36-.68.55.55,0,0,0-.69.36c-.24.78-.52,1.57-.82,2.33s-.63,1.53-1,2.27A.57.57,0,0,0,90.06,86.08Z" transform="translate(-8.03 -4.86)"/><path class="cls-1" d="M93.3,63.32c-.19-.83-.41-1.66-.66-2.46a.56.56,0,0,0-.69-.37.54.54,0,0,0-.32.27.52.52,0,0,0,0,.42c.24.78.46,1.59.64,2.39s.34,1.62.46,2.42a.56.56,0,0,0,.55.47h.08a.56.56,0,0,0,.46-.63C93.65,65,93.49,64.14,93.3,63.32Z" transform="translate(-8.03 -4.86)"/><path class="cls-1" d="M93.1,68.05a.58.58,0,0,0-.13.4.55.55,0,0,0,.55.51h0a.56.56,0,0,0,.51-.57v0a.55.55,0,0,0-1-.32Z" transform="translate(-8.03 -4.86)"/><path class="cls-1" d="M74.36,100.79a.57.57,0,0,0-.28.31.58.58,0,0,0,0,.43.54.54,0,0,0,.5.31.57.57,0,0,0,.52-.37.61.61,0,0,0,0-.42A.55.55,0,0,0,74.36,100.79Z" transform="translate(-8.03 -4.86)"/><path class="cls-1" d="M34.93,47.78a.55.55,0,0,0,.8.75c.55-.59,1.13-1.18,1.73-1.74h0l0,0c.6-.55,1.22-1.08,1.85-1.59a.49.49,0,0,0,.2-.37.52.52,0,0,0-.11-.4.58.58,0,0,0-.78-.09c-.66.54-1.31,1.1-1.93,1.67l0,0C36.1,46.57,35.5,47.17,34.93,47.78Z" transform="translate(-8.03 -4.86)"/><path class="cls-1" d="M40.72,42.78a.51.51,0,0,0-.23.35.57.57,0,0,0,.08.42.55.55,0,0,0,.77.14.55.55,0,0,0,.14-.76A.56.56,0,0,0,40.72,42.78Z" transform="translate(-8.03 -4.86)"/><path class="cls-1" d="M37.52,95.25a.56.56,0,0,0-.78,0,.55.55,0,0,0,0,.77l0,0h0a.55.55,0,0,0,.35.12.52.52,0,0,0,.4-.18.54.54,0,0,0,0-.74h0Z" transform="translate(-8.03 -4.86)"/><path class="cls-1" d="M43.2,100.67a.55.55,0,0,0,.28-1c-.71-.41-1.42-.86-2.09-1.32s-1.35-1-2-1.47a.58.58,0,0,0-.78.09.56.56,0,0,0,.09.77c.65.52,1.34,1,2,1.5l0,0c.7.48,1.43.94,2.16,1.36A.52.52,0,0,0,43.2,100.67Z" transform="translate(-8.03 -4.86)"/><path class="cls-1" d="M84.61,48.64a.51.51,0,0,0,.37-.15.56.56,0,0,0,0-.78c-.58-.62-1.18-1.22-1.79-1.78l0,0c-.62-.57-1.27-1.13-1.94-1.66a.55.55,0,0,0-.89.49.54.54,0,0,0,.2.36c.65.52,1.28,1.06,1.88,1.62s1.19,1.14,1.75,1.74A.58.58,0,0,0,84.61,48.64Z" transform="translate(-8.03 -4.86)"/><path class="cls-1" d="M33.3,92.31c.53.66,1.09,1.31,1.67,1.94a.56.56,0,0,0,.77,0,.57.57,0,0,0,.18-.39.58.58,0,0,0-.15-.39c-.56-.6-1.1-1.23-1.61-1.87s-1-1.32-1.47-2a.57.57,0,0,0-.77-.14.55.55,0,0,0-.14.76C32.26,91,32.77,91.65,33.3,92.31Z" transform="translate(-8.03 -4.86)"/><path class="cls-1" d="M82.5,95.24a.53.53,0,0,0,0,.77.54.54,0,0,0,.4.17.57.57,0,0,0,.37-.14.52.52,0,0,0,.17-.38.53.53,0,0,0-.14-.4A.56.56,0,0,0,82.5,95.24Z" transform="translate(-8.03 -4.86)"/><path class="cls-1" d="M78.44,42.87a.62.62,0,0,0-.09.42.56.56,0,0,0,.23.35l0,0a.57.57,0,0,0,.74-.17.55.55,0,0,0-.15-.76A.55.55,0,0,0,78.44,42.87Z" transform="translate(-8.03 -4.86)"/><path class="cls-1" d="M34.12,50.4a.54.54,0,0,0-.09-.77.56.56,0,0,0-.77.09.59.59,0,0,0-.12.4.58.58,0,0,0,.21.37.52.52,0,0,0,.34.12A.52.52,0,0,0,34.12,50.4Z" transform="translate(-8.03 -4.86)"/><path class="cls-1" d="M86.59,50.42a.51.51,0,0,0,.2-.37.55.55,0,0,0-.11-.41.57.57,0,0,0-.77-.08.54.54,0,0,0-.21.37.58.58,0,0,0,.12.4.56.56,0,0,0,.43.21A.58.58,0,0,0,86.59,50.42Z" transform="translate(-8.03 -4.86)"/><path class="cls-1" d="M55.55,104.33a.53.53,0,0,0-.1-.41.55.55,0,0,0-.36-.22h0a.54.54,0,0,0-.5.87.54.54,0,0,0,.32.21H55A.55.55,0,0,0,55.55,104.33Z" transform="translate(-8.03 -4.86)"/><path class="cls-1" d="M28.88,58.23a.55.55,0,0,0-.4,1,.69.69,0,0,0,.2,0A.56.56,0,0,0,29.2,59v0A.55.55,0,0,0,28.88,58.23Z" transform="translate(-8.03 -4.86)"/><path class="cls-1" d="M58,37.43a.55.55,0,0,0-.59-.51c-.83.06-1.68.16-2.53.29h0c-.84.13-1.68.29-2.51.47a.6.6,0,0,0-.35.25.55.55,0,0,0,.47.84h.12c.8-.18,1.62-.34,2.43-.46s1.62-.22,2.46-.28A.55.55,0,0,0,58,37.43Z" transform="translate(-8.03 -4.86)"/><path class="cls-1" d="M27.71,80.41a.53.53,0,0,0-.32.27.52.52,0,0,0,0,.42c.25.81.53,1.62.85,2.41s.65,1.57,1,2.34a.56.56,0,0,0,.5.31A.46.46,0,0,0,30,86.1a.48.48,0,0,0,.28-.31.55.55,0,0,0,0-.42l0-.05c-.35-.71-.67-1.46-1-2.22s-.58-1.55-.82-2.33A.56.56,0,0,0,27.71,80.41Z" transform="translate(-8.03 -4.86)"/><path class="cls-1" d="M49.56,38.62a.52.52,0,0,0,0,.42.55.55,0,0,0,.52.39.76.76,0,0,0,.16,0,.55.55,0,1,0-.32-1h0A.48.48,0,0,0,49.56,38.62Z" transform="translate(-8.03 -4.86)"/><path class="cls-1" d="M47.22,102.1a.58.58,0,0,0,0,.43.6.6,0,0,0,.3.29c.8.31,1.61.59,2.42.84s1.63.47,2.47.66h.12a.54.54,0,0,0,.53-.43.55.55,0,0,0-.3-.62h0l-.16,0c-.78-.17-1.58-.38-2.36-.62h0c-.77-.24-1.55-.51-2.31-.81A.58.58,0,0,0,47.22,102.1Z" transform="translate(-8.03 -4.86)"/><path class="cls-1" d="M88.84,88.28a.55.55,0,0,0,.28.07.52.52,0,0,0,.47-.27h0a.55.55,0,0,0-.2-.74.57.57,0,0,0-.74.18v0a.52.52,0,0,0-.06.42A.56.56,0,0,0,88.84,88.28Z" transform="translate(-8.03 -4.86)"/><path class="cls-1" d="M72.81,102.09a.56.56,0,0,0-.72-.31c-.76.3-1.55.58-2.33.82s-1.59.46-2.38.64a.55.55,0,0,0,.12,1.08h.12c.83-.19,1.66-.41,2.46-.66s1.62-.53,2.42-.85A.55.55,0,0,0,72.81,102.09Z" transform="translate(-8.03 -4.86)"/><path class="cls-1" d="M67.3,38.73l.13,0a.55.55,0,0,0,.53-.43.53.53,0,0,0-.07-.42.6.6,0,0,0-.34-.24c-.83-.18-1.68-.34-2.52-.47s-1.69-.21-2.53-.27a.54.54,0,0,0-.59.5.55.55,0,0,0,.51.59c.81.06,1.64.15,2.46.27S66.52,38.56,67.3,38.73Z" transform="translate(-8.03 -4.86)"/><path class="cls-1" d="M59.94,36.83a.55.55,0,0,0,0,1.1.56.56,0,0,0,.55-.56A.56.56,0,0,0,59.94,36.83Z" transform="translate(-8.03 -4.86)"/><path class="cls-1" d="M42.62,41.75a.52.52,0,0,0,.06.42.56.56,0,0,0,.47.28.57.57,0,0,0,.28-.08c.71-.41,1.44-.8,2.18-1.16s1.5-.69,2.26-1a.51.51,0,0,0,.3-.29.51.51,0,0,0,0-.42.55.55,0,0,0-.71-.31c-.79.31-1.58.65-2.34,1s-1.52.77-2.26,1.2A.56.56,0,0,0,42.62,41.75Z" transform="translate(-8.03 -4.86)"/><path class="cls-1" d="M69.33,38.68a.56.56,0,0,0,0,.42.53.53,0,0,0,.31.26h0a.39.39,0,0,0,.15,0,.55.55,0,0,0,.53-.39.49.49,0,0,0,0-.41.5.5,0,0,0-.32-.27A.56.56,0,0,0,69.33,38.68Z" transform="translate(-8.03 -4.86)"/><path class="cls-1" d="M93.79,76.09c.13-.84.22-1.7.28-2.54,0,0,0,0,0,0,.06-.83.09-1.68.09-2.53v-.07a.55.55,0,0,0-.55-.55.55.55,0,0,0-.55.55V71c0,.83,0,1.66-.09,2.47s-.16,1.65-.28,2.46a.57.57,0,0,0,.46.63h.09A.55.55,0,0,0,93.79,76.09Z" transform="translate(-8.03 -4.86)"/><path class="cls-1" d="M30.89,88.37a.55.55,0,0,0,.28-.07.52.52,0,0,0,.25-.33.56.56,0,0,0-.05-.42h0a.56.56,0,0,0-.75-.2.56.56,0,0,0-.26.34.58.58,0,0,0,0,.32l0,0,.07.12A.53.53,0,0,0,30.89,88.37Z" transform="translate(-8.03 -4.86)"/><path class="cls-1" d="M27.22,79.06l.13,0a.54.54,0,0,0,.41-.65A.56.56,0,0,0,27.1,78a.56.56,0,0,0-.41.66A.55.55,0,0,0,27.22,79.06Z" transform="translate(-8.03 -4.86)"/><path class="cls-1" d="M92.9,77.94a.54.54,0,0,0-.58.82.51.51,0,0,0,.34.25h.12a.55.55,0,0,0,.12-1.08Z" transform="translate(-8.03 -4.86)"/><path class="cls-1" d="M45.67,100.8h0a.56.56,0,0,0-.73.26.55.55,0,0,0,0,.42.6.6,0,0,0,.22.28h0l.07,0a.48.48,0,0,0,.24.06.54.54,0,0,0,.49-.31A.55.55,0,0,0,45.67,100.8Z" transform="translate(-8.03 -4.86)"/><path class="cls-1" d="M71.72,39.47a.55.55,0,0,0,0,.42.53.53,0,0,0,.23.26h0l.09,0c.77.3,1.53.64,2.27,1s1.48.74,2.19,1.15a.53.53,0,0,0,.27.08.56.56,0,0,0,.48-.28.55.55,0,0,0-.2-.75c-.73-.42-1.49-.82-2.26-1.19s-1.56-.71-2.35-1A.55.55,0,0,0,71.72,39.47Z" transform="translate(-8.03 -4.86)"/><path class="cls-1" d="M63.08,104.48a.56.56,0,0,0-.59-.51c-.81.06-1.63.09-2.44.09h0c-.81,0-1.64,0-2.45-.09a.55.55,0,0,0-.59.51.53.53,0,0,0,.13.4.56.56,0,0,0,.38.19c.84.06,1.69.09,2.53.09h0c.83,0,1.68,0,2.52-.09A.56.56,0,0,0,63.08,104.48Z" transform="translate(-8.03 -4.86)"/><path class="cls-1" d="M25.93,73.58c.06.86.16,1.71.28,2.54a.56.56,0,0,0,.54.47h.09a.53.53,0,0,0,.36-.22.52.52,0,0,0,.1-.4c-.12-.81-.22-1.64-.27-2.46s-.1-1.65-.1-2.47a.55.55,0,0,0-.55-.55.57.57,0,0,0-.39.16.55.55,0,0,0-.16.39C25.83,71.88,25.86,72.74,25.93,73.58Z" transform="translate(-8.03 -4.86)"/><path class="cls-1" d="M26.2,65.94a.59.59,0,0,0,.1.41.54.54,0,0,0,.37.21h.08a.55.55,0,0,0,.54-.47q.18-1.23.45-2.43c.18-.8.4-1.6.64-2.39A.54.54,0,0,0,28,60.6a.55.55,0,0,0-.69.36c-.25.81-.47,1.64-.66,2.47S26.33,65.1,26.2,65.94Z" transform="translate(-8.03 -4.86)"/><path class="cls-1" d="M25.92,68.48a.56.56,0,0,0,.51.59h0a.55.55,0,1,0-.55-.59Z" transform="translate(-8.03 -4.86)"/><path class="cls-1" d="M59.25,5.25a5,5,0,0,1,3.29,3.66,5.46,5.46,0,0,0-3.29,1.73A5.57,5.57,0,0,0,56,8.91,5,5,0,0,1,59.25,5.25Z" transform="translate(-8.03 -4.86)"/><path class="cls-1" d="M63.21,8.85c.32,2,.1,3.57-1.4,4.41a19.24,19.24,0,0,0-2.51-.17c-.34,0-.74,0-1.18,0a4.62,4.62,0,0,1,1.13-2.49h0a5.46,5.46,0,0,1,3.29-1.73C62.76,8.88,63,8.86,63.21,8.85Z" transform="translate(-8.03 -4.86)"/><path class="cls-1" d="M59.25,10.64h0a4.62,4.62,0,0,0-1.13,2.49c-.43,0-.91.07-1.41.14-1.5-.84-1.75-2.41-1.43-4.42.23,0,.45,0,.68.06A5.57,5.57,0,0,1,59.25,10.64Z" transform="translate(-8.03 -4.86)"/><path class="cls-2" d="M77.72,102.9C57,109,47.23,129.75,31.23,129.75c-5.74-.2-10-2.84-13.19-8.29-1.75-3-1.62-8.15.49-9,.12,1.16,2.52,7,15,4.67a106.61,106.61,0,0,0,18.4-5.55c4.32-1.65,8.66-3.4,13.37-5h0c3.27-1.14,6.71-2.22,10.45-3.16l.64-.16.37-.09Z" transform="translate(-8.03 -4.86)"/><path class="cls-2" d="M101.79,113.83c2.74,11.55-7.71,15.73-15.76,15.93H60l0,0,0,0H51.64c11.42,0,14.94-21.31,33.88-28.13h0C95.05,101,99.62,104.68,101.79,113.83Z" transform="translate(-8.03 -4.86)"/><path class="cls-2" d="M47,104.28c5.71,1.61,11.83,3,18.3,2.26-4.71,1.63-9.05,3.38-13.37,5-8.37-2.33-12.29-9.42-19.6-11a41.31,41.31,0,0,1,5.28,1c.89.22,1.8.47,2.72.73s2,.57,3,.88C44.5,103.57,45.72,103.93,47,104.28Z" transform="translate(-8.03 -4.86)"/><path class="cls-3" d="M68.31,104.45a52.6,52.6,0,0,0,8-1.23l-.64.16c-3.74.94-7.18,2-10.45,3.16h0c-6.47.71-12.59-.65-18.3-2.26h0l.84-.38h0a.33.33,0,0,0,.1.11,18.5,18.5,0,0,0,3.74.8c.84.08,2.47-.12,3.66,0s3.3,0,4.77.25S66.24,104.48,68.31,104.45Z" transform="translate(-8.03 -4.86)"/><path class="cls-2" d="M32.29,100.61c7.31,1.54,11.23,8.63,19.6,11a106.61,106.61,0,0,1-18.4,5.55c-12.44,2.37-14.84-3.51-15-4.67,1.49-4.52,3.21-12,11.36-12,.78,0,1.58,0,2.39.13Z" transform="translate(-8.03 -4.86)"/><path class="cls-2" d="M31.23,129.75c16,0,25.8-20.79,46.49-26.85a51.29,51.29,0,0,1,7.8-1.26c-18.94,6.82-22.46,28.13-33.88,28.13H34l0,0,0,0H32C31.72,129.77,31.47,129.77,31.23,129.75Z" transform="translate(-8.03 -4.86)"/><path class="cls-3" d="M54.43,102.42a17.1,17.1,0,0,1-3.08.24l-.86-.09h0c2-1,4.07-2.25,6.27-3.65a1.81,1.81,0,0,0,0,2,8.2,8.2,0,0,0,1.11,1.42S55.73,102.32,54.43,102.42Z" transform="translate(-8.03 -4.86)"/><path class="cls-3" d="M60.78,96.21a1.84,1.84,0,0,0,1,1.21c.49.22.92.33,1.26.45.26.38.84,2.3-.28,2.85a2.4,2.4,0,0,1-2.59-.18c-.67-.43-1.1-1.07-.92-1.44a6.66,6.66,0,0,0,1-2,1.19,1.19,0,0,0-.1-.49Z" transform="translate(-8.03 -4.86)"/><path class="cls-3" d="M79.5,80s-1.14,5.89-2.27,12.49h0a22.71,22.71,0,0,0-3.08,3c-1.71,1.84-4.46,3.76-6.55,3.72A5,5,0,0,1,66.84,98a2.66,2.66,0,0,0-2.19-2A9.35,9.35,0,0,1,62,95.34c3.47-2.52,7.16-5.47,11.09-8.93A71.6,71.6,0,0,0,79.5,80Z" transform="translate(-8.03 -4.86)"/><path class="cls-2" d="M45.19,96.75a7.19,7.19,0,0,0,2.1-1.43l.17.17q-3.32,3.45-7.17,6.85c-.92-.26-1.83-.51-2.72-.73L40,98.28A35.2,35.2,0,0,0,44.59,97h0l.53-.21Z" transform="translate(-8.03 -4.86)"/><path class="cls-3" d="M46,89.16c-.25-.5-.75-1.51-.89-1.91a.38.38,0,0,0-.21-.2,10.7,10.7,0,0,0-.79-1.74c-.22-.62-.44-1.74-.7-2.38a9.94,9.94,0,0,1-.32-2.29c-.18-1.31-.92-1.48-1.3-1.5-.24-1-.63-2.8-.63-2.8A92.29,92.29,0,0,0,51.5,81.28q-1.52,2.4-3.19,5a4,4,0,0,0-.3-1.6c-.3-.41-1.53.16-1.74,1.26-.17.89.37,2.85.08,3.28a1.07,1.07,0,0,1-.23.26Z" transform="translate(-8.03 -4.86)"/><path class="cls-2" d="M82.85,59.91s.83,4.2-10,17.87C61.59,92,43.31,103.22,43.31,103.22c-1-.31-2-.6-3-.88q3.85-3.39,7.17-6.85C67.37,74.82,73.41,53.63,73.41,53.63a1.85,1.85,0,0,1,2.11.25C76.71,54.75,82.85,59.91,82.85,59.91Z" transform="translate(-8.03 -4.86)"/><path class="cls-2" d="M60.78,96.21l-.6.42c-.2-.56-.65-1.19-.92-1.09s-1,1.76-1.92,2.66a3.55,3.55,0,0,0-.57.71h0c-2.2,1.4-4.28,2.62-6.27,3.65h0a2.64,2.64,0,0,0-1.71.23c-.51.35-1.09.82-1,1.1h0l-.84.38h0c-1.24-.35-2.46-.71-3.65-1.06,0,0,18.28-11.26,29.53-25.44,10.84-13.67,10-17.87,10-17.87a1.6,1.6,0,0,1,1.53.43C84.87,61,88,66.85,88,67.49a25.18,25.18,0,0,1-3.28,5.89A66,66,0,0,1,79.5,80a71.6,71.6,0,0,1-6.41,6.39c-3.93,3.46-7.62,6.41-11.09,8.93-.39-.22-.85-.62-1.12-.19A1.43,1.43,0,0,0,60.78,96.21Z" transform="translate(-8.03 -4.86)"/><path class="cls-2" d="M47.29,95.32a5.35,5.35,0,0,0,1.52-2.56,20.61,20.61,0,0,0-.32-4.86c-.09-.59-.14-1.16-.18-1.65q1.68-2.56,3.19-5,1.7-2.7,3.18-5.21c1.3-2.15,2.48-4.2,3.56-6.12.62-1.12,1.21-2.2,1.77-3.23,5.22-9.65,7.44-15.44,7.38-15.56a3.44,3.44,0,0,0-.3-.39,1.45,1.45,0,0,1,1.74-.23c1,.55,4.58,3.09,4.58,3.09s-6,21.19-25.95,41.86Z" transform="translate(-8.03 -4.86)"/><path class="cls-2" d="M58.24,70c-1.08,1.92-2.26,4-3.56,6.12a48.36,48.36,0,0,1-19-16.16s3.94-3.67,5.48-4.75a12.35,12.35,0,0,1,4-1.53C47.25,60.52,54.07,66.6,58.24,70Z" transform="translate(-8.03 -4.86)"/><path class="cls-2" d="M49.77,50.54a1.46,1.46,0,0,1,1.75.23,2.52,2.52,0,0,0-.3.39c-.12.23,2,8.08,8.79,15.56-.56,1-1.15,2.11-1.77,3.23-4.17-3.35-11-9.43-13.05-16.32C45.19,53.63,48.77,51.09,49.77,50.54Z" transform="translate(-8.03 -4.86)"/><path class="cls-2" d="M35.66,59.91a48.36,48.36,0,0,0,19,16.16q-1.49,2.5-3.18,5.21a92.29,92.29,0,0,1-10.36-4.94,72.45,72.45,0,0,1-7.68-4.59c-.31-.23-.59-.46-.85-.67-2.08-1.66-2.76-2.52-2.7-3a69.09,69.09,0,0,1,4.45-7.56A3.34,3.34,0,0,1,35.66,59.91Z" transform="translate(-8.03 -4.86)"/><path class="cls-4" d="M77.23,92.51h0C78.36,85.91,79.5,80,79.5,80a66,66,0,0,0,5.17-6.64,120.27,120.27,0,0,1,3.1,11.82,83.91,83.91,0,0,0,2.29,8.56,2.83,2.83,0,0,1-.34,3,37.35,37.35,0,0,1-4.19,3,38.77,38.77,0,0,1-8.81,3.39l-.37.09a52.6,52.6,0,0,1-8,1.23c-2.07,0-6.78.84-8.24.61s-3.58-.12-4.77-.25-2.82.08-3.66,0a18.5,18.5,0,0,1-3.74-.8.33.33,0,0,1-.1-.11c-.11-.28.47-.75,1-1.1a2.64,2.64,0,0,1,1.71-.23l.86.09a17.1,17.1,0,0,0,3.08-.24c1.3-.1,3.43-.08,3.43-.08a8.2,8.2,0,0,1-1.11-1.42,1.81,1.81,0,0,1,0-2h0a3.55,3.55,0,0,1,.57-.71c.87-.9,1.57-2.52,1.92-2.66s.72.53.92,1.09a1.19,1.19,0,0,1,.1.49,6.66,6.66,0,0,1-1,2c-.18.37.25,1,.92,1.44a2.4,2.4,0,0,0,2.59.18c1.12-.55.54-2.47.28-2.85-.34-.12-.77-.23-1.26-.45a1.84,1.84,0,0,1-1-1.21,1.43,1.43,0,0,1,.1-1.06c.27-.43.73,0,1.12.19a9.35,9.35,0,0,0,2.65.72,2.66,2.66,0,0,1,2.19,2,5,5,0,0,0,.76,1.22c2.09,0,4.84-1.88,6.55-3.72A22.71,22.71,0,0,1,77.23,92.51Z" transform="translate(-8.03 -4.86)"/><path class="cls-4" d="M41.77,79.14c.38,0,1.12.19,1.3,1.5a9.94,9.94,0,0,0,.32,2.29c.26.64.48,1.76.7,2.38a10.7,10.7,0,0,1,.79,1.74,5.38,5.38,0,0,0-2.15.12c0-.14-.48-2.12-.79-3a9.92,9.92,0,0,1-.41-1.75h0a10.52,10.52,0,0,1,0-2.18C41.54,79.62,41.39,79.13,41.77,79.14Z" transform="translate(-8.03 -4.86)"/><path class="cls-4" d="M39.83,84.11a9.26,9.26,0,0,1,1.09,3.44,7.54,7.54,0,0,0-1.57.74,11,11,0,0,0-.74-2.43,17,17,0,0,1-.76-2.44s0-.1,0-.16a17.22,17.22,0,0,1-.24-1.92c0-.39-.27-1.25,0-1.31a1.69,1.69,0,0,1,1.5,1.4,14.55,14.55,0,0,0,.67,2.46l0,.12Z" transform="translate(-8.03 -4.86)"/><path class="cls-4" d="M42.73,87.17l-.42,0a6.48,6.48,0,0,0-1.39.33,9.26,9.26,0,0,0-1.09-3.44l0-.1a11.78,11.78,0,0,1-.38-2.35,7.19,7.19,0,0,1-.23-2.46c.11-.19.73-.26,1.15,0a3.3,3.3,0,0,1,1,2.09c.07.38.13.76.19,1.13h0a9.92,9.92,0,0,0,.41,1.75C42.25,85.05,42.7,87,42.73,87.17Z" transform="translate(-8.03 -4.86)"/><path class="cls-4" d="M41.34,81.29a3.3,3.3,0,0,0-1-2.09c-.42-.26-1-.19-1.15,0a7.19,7.19,0,0,0,.23,2.46A11.78,11.78,0,0,0,39.79,84l0-.12a14.55,14.55,0,0,1-.67-2.46,1.69,1.69,0,0,0-1.5-1.4c-.27.06,0,.92,0,1.31a17.22,17.22,0,0,0,.24,1.92.36.36,0,0,1,0-.1c-.37-1.54-1.29-1.57-1.55-1.45s.08.91.17,1.51.44,1.66.76,4.25c.07.51.14,1,.22,1.58-1.73-.77-3.74-1.44-5.7-.13a20.79,20.79,0,0,0-3.54,3.13l-1-.15c.11-.42.25-.89.41-1.41,1.14-3.71,5-19.41,5-19.41.26.21.54.44.85.67a72.45,72.45,0,0,0,7.68,4.59s.39,1.77.63,2.8c-.38,0-.23.48-.24,1.1a10.52,10.52,0,0,0,0,2.18C41.47,82.05,41.41,81.67,41.34,81.29Z" transform="translate(-8.03 -4.86)"/><path class="cls-4" d="M38.69,95.18c.64,2,2.75,2.73,5.63,1.89l.27-.09A35.2,35.2,0,0,1,40,98.28a18.31,18.31,0,0,1-3.57.43c-2.79,0-6.64-.48-8.29-1.9-1.42-1.22-1.65-2.27-1-4.91l1,.15a20.79,20.79,0,0,1,3.54-3.13c2-1.31,4-.64,5.7.13A42.63,42.63,0,0,0,38.69,95.18Z" transform="translate(-8.03 -4.86)"/><path class="cls-4" d="M39.35,88.29a7.54,7.54,0,0,1,1.57-.74,6.48,6.48,0,0,1,1.39-.33l.42,0a5.38,5.38,0,0,1,2.15-.12.38.38,0,0,1,.21.2c.14.4.64,1.41.89,1.91l.14.29a1.07,1.07,0,0,0,.23-.26c.29-.43-.25-2.39-.08-3.28.21-1.1,1.44-1.67,1.74-1.26a4,4,0,0,1,.3,1.6c0,.49.09,1.06.18,1.65a20.61,20.61,0,0,1,.32,4.86,5.35,5.35,0,0,1-1.52,2.56,7.19,7.19,0,0,1-2.1,1.43h0l-.53.21h0l-.27.09c-2.88.84-5,.13-5.63-1.89a42.63,42.63,0,0,1-1.3-6.13c-.08-.54-.15-1.07-.22-1.58-.32-2.59-.67-3.65-.76-4.25s-.43-1.39-.17-1.51,1.18-.09,1.55,1.45a.36.36,0,0,0,0,.1c0,.06,0,.11,0,.16a17,17,0,0,0,.76,2.44A11,11,0,0,1,39.35,88.29Z" transform="translate(-8.03 -4.86)"/><path class="cls-4" d="M72.71,31.92c1.27.19,1.3,2,.41,4.06a4.39,4.39,0,0,0,0,3.94c.35,1,.72,3.17-.93,3.9a2,2,0,0,1-3-1.64A26.17,26.17,0,0,0,70.39,37v-.08c.08-.6.13-1.14.16-1.59,0-.21,0-.41,0-.57,0-1.44.69-2.72,1.74-2.86A1.34,1.34,0,0,1,72.71,31.92Z" transform="translate(-8.03 -4.86)"/><path class="cls-4" d="M45.48,36c-.88-2.1-.85-3.87.42-4.06a1.78,1.78,0,0,1,.4,0c1,.13,1.73,1.41,1.73,2.86,0,.16,0,.35,0,.57,0,.45.08,1,.16,1.59,0,0,0,.06,0,.08a26.12,26.12,0,0,0,1.21,5.16,2,2,0,0,1-3,1.64c-1.65-.73-1.29-2.89-.94-3.9A4.35,4.35,0,0,0,45.48,36Z" transform="translate(-8.03 -4.86)"/><path class="cls-1" d="M70.57,34.78c0,.16,0,.36,0,.57,0,0-1-.22-1-1.67V28.53a3.67,3.67,0,0,0-4-3.36c-2.72.2-4.51,1.52-6.28,1.52S55.74,25.37,53,25.17a3.67,3.67,0,0,0-4,3.36v5.15c0,1.45-1,1.67-1,1.67,0-.22,0-.41,0-.57,0-1.45-.69-2.73-1.73-2.86-.67-4.48-1.78-9.39,1.61-13.85a13.08,13.08,0,0,1,8.8-4.8c.5-.07,1-.12,1.41-.14s.84,0,1.18,0a19.24,19.24,0,0,1,2.51.17,13.07,13.07,0,0,1,8.88,4.81c3.4,4.46,2.28,9.37,1.62,13.85C71.26,32.06,70.57,33.34,70.57,34.78Z" transform="translate(-8.03 -4.86)"/><path class="cls-4" d="M69.55,33.68c0,1.45,1,1.67,1,1.67,0,.45-.08,1-.16,1.59V37a26.17,26.17,0,0,1-1.22,5.16,7.79,7.79,0,0,1-1.68,3,10.54,10.54,0,0,1-1.25,1,12.93,12.93,0,0,1-6.94,2.46,12.9,12.9,0,0,1-6.93-2.46,10.54,10.54,0,0,1-1.25-1,7.93,7.93,0,0,1-1.69-3A26.12,26.12,0,0,1,48.22,37s0-.05,0-.08c-.08-.6-.13-1.14-.16-1.59,0,0,1-.22,1-1.67V28.53a3.67,3.67,0,0,1,4-3.36c2.71.2,4.5,1.52,6.27,1.52s3.56-1.32,6.28-1.52a3.67,3.67,0,0,1,4,3.36Z" transform="translate(-8.03 -4.86)"/><path class="cls-4" d="M66,49.53s.7.75,1.12,1.24a3.44,3.44,0,0,1,.3.39c.06.12-2.16,5.91-7.38,15.56-6.8-7.48-8.91-15.33-8.79-15.56a2.52,2.52,0,0,1,.3-.39c.42-.49,1.11-1.24,1.11-1.24l-.26-3.37a12.9,12.9,0,0,0,6.93,2.46,12.93,12.93,0,0,0,6.94-2.46Z" transform="translate(-8.03 -4.86)"/><path class="cls-5" d="M54.23,35.86a4,4,0,0,1-.7-.06A5.87,5.87,0,0,1,52,35.26,2,2,0,0,1,51,33.84a7.33,7.33,0,0,0,2.64,1.24A6,6,0,0,0,56,34.87a2.72,2.72,0,0,1,.9-.13c.49.08.54,1.1.54,1.1a1.56,1.56,0,0,0-.65-.37,4.08,4.08,0,0,0-.62.11A8.31,8.31,0,0,1,54.23,35.86Z" transform="translate(-8.03 -4.86)"/><path class="cls-5" d="M52.43,51.64,52,46.19l.73-.06s.2,2.57.27,3.42A8.84,8.84,0,0,1,52.43,51.64Z" transform="translate(-8.03 -4.86)"/><path class="cls-5" d="M59.76,67C53,59.56,50.62,51.54,50.89,51a19.47,19.47,0,0,1,1.47-1.71l.54.5c-.52.57-1.13,1.24-1.31,1.48A38.07,38.07,0,0,0,60.3,66.49Z" transform="translate(-8.03 -4.86)"/><path class="cls-5" d="M51.41,81.63C46.86,80,36.07,74.21,33.24,72c-3.37-2.58-3.76-3.44-3.69-4a64.59,64.59,0,0,1,4.55-7.78,3.71,3.71,0,0,1,1.38-.7c.54-.5,4-3.7,5.45-4.71a12.17,12.17,0,0,1,4.12-1.59c.5-.36,3.6-2.54,4.55-3.06a1.83,1.83,0,0,1,2.19.3l-.54.5a1.08,1.08,0,0,0-1.3-.16c-1,.53-4.51,3-4.55,3.06l-.06,0h-.08a12.29,12.29,0,0,0-3.91,1.49c-1.5,1.05-5.4,4.67-5.44,4.71l-.07.06-.09,0a3.21,3.21,0,0,0-1.14.56,77.11,77.11,0,0,0-4.34,7.36c0,.12.17.79,3.42,3.28,2.8,2.15,13.46,7.89,18,9.48Z" transform="translate(-8.03 -4.86)"/><path class="cls-5" d="M59.3,49a13.38,13.38,0,0,1-8.44-3.58,6.88,6.88,0,0,1-1.38-2.13,2.24,2.24,0,0,1-.8.82,2.5,2.5,0,0,1-2.38.06c-1.69-.75-1.67-2.81-1.13-4.35,0-.09.07-.18.1-.28a3.85,3.85,0,0,0-.13-3.39c-.69-1.65-.82-3.05-.37-3.85a1.44,1.44,0,0,1,1.07-.72,1.82,1.82,0,0,1,1.49.45,3.66,3.66,0,0,1,1.07,2.77c0,2.17,1,8.21,3,10.09a12.76,12.76,0,0,0,7.93,3.38,12.78,12.78,0,0,0,7.94-3.38c2-1.88,3-7.92,3-10.09A3.69,3.69,0,0,1,71.27,32a1.83,1.83,0,0,1,1.49-.45,1.44,1.44,0,0,1,1.08.72c.45.8.31,2.2-.38,3.85a3.84,3.84,0,0,0-.12,3.39c0,.1.07.19.1.28.54,1.54.56,3.6-1.13,4.35a2.52,2.52,0,0,1-2.39-.06,2.3,2.3,0,0,1-.79-.82,6.72,6.72,0,0,1-1.39,2.13A13.34,13.34,0,0,1,59.3,49Zm10.24-6.74a1.64,1.64,0,0,0,.77,1.22,1.79,1.79,0,0,0,1.7,0c1.63-.72.83-3.16.74-3.43l-.1-.27a4.58,4.58,0,0,1,.14-3.94c.58-1.39.74-2.61.41-3.2a.69.69,0,0,0-.54-.35,1.08,1.08,0,0,0-.91.28,3,3,0,0,0-.81,2.21A26.08,26.08,0,0,1,69.54,42.24Zm-23.43-10-.16,0a.69.69,0,0,0-.54.35c-.33.59-.17,1.81.41,3.2A4.58,4.58,0,0,1,46,39.78c0,.09-.07.18-.1.27-.1.27-.89,2.71.73,3.43a1.81,1.81,0,0,0,1.71,0,1.63,1.63,0,0,0,.76-1.22,26.36,26.36,0,0,1-1.39-7.46,2.94,2.94,0,0,0-.82-2.21A1.08,1.08,0,0,0,46.11,32.27Z" transform="translate(-8.03 -4.86)"/><path class="cls-5" d="M70.75,37.07,70,37A4.58,4.58,0,0,1,71.1,34.5,1.6,1.6,0,0,1,72.87,34,4,4,0,0,0,70.75,37.07Z" transform="translate(-8.03 -4.86)"/><path class="cls-5" d="M47.86,37.07l.72-.09a4.56,4.56,0,0,0-1.07-2.48A1.6,1.6,0,0,0,45.74,34,4,4,0,0,1,47.86,37.07Z" transform="translate(-8.03 -4.86)"/><path class="cls-5" d="M70.48,35.71a1.87,1.87,0,0,1-1.3-2V28.53a3.27,3.27,0,0,0-1.07-2.15,3.21,3.21,0,0,0-2.5-.84,13.2,13.2,0,0,0-3.55.86,8.38,8.38,0,0,1-2.76.65,8.5,8.5,0,0,1-2.76-.65A13,13,0,0,0,53,25.54a3.25,3.25,0,0,0-2.51.84,3.32,3.32,0,0,0-1.07,2.15v5.15a1.87,1.87,0,0,1-1.29,2L48,35c.07,0,.72-.21.72-1.31V28.53a4,4,0,0,1,4.36-3.72,14.05,14.05,0,0,1,3.74.9,7.82,7.82,0,0,0,2.51.61,7.87,7.87,0,0,0,2.52-.61,14.07,14.07,0,0,1,3.73-.9,3.93,3.93,0,0,1,3.06,1,4,4,0,0,1,1.31,2.69v5.15c0,1.14.71,1.31.71,1.31Z" transform="translate(-8.03 -4.86)"/><path class="cls-5" d="M64.38,35.86a8.31,8.31,0,0,1-1.91-.28,4.08,4.08,0,0,0-.62-.11,1.56,1.56,0,0,0-.65.37s.35-1.19,1.43-1a6.47,6.47,0,0,0,2.32.21,7.53,7.53,0,0,0,2.64-1.24,3.29,3.29,0,0,1-2.51,2A4.14,4.14,0,0,1,64.38,35.86Z" transform="translate(-8.03 -4.86)"/><path class="cls-5" d="M66.17,51.64a8.08,8.08,0,0,1-.57-2l.28-3.53.73.06Z" transform="translate(-8.03 -4.86)"/><path class="cls-5" d="M37.86,101.83l-.59-.44c.82-1.1,1.64-2.22,2.44-3.33l.6.43Z" transform="translate(-8.03 -4.86)"/><path class="cls-5" d="M48.62,86.45,48,86C60.92,66.35,66.52,52.8,67,51.23c-.2-.25-.79-.9-1.29-1.45l.53-.5A18.29,18.29,0,0,1,67.72,51c.07.15.13.27-1,2.93-.62,1.45-1.71,3.88-3.36,7.18A253.75,253.75,0,0,1,48.62,86.45Z" transform="translate(-8.03 -4.86)"/><path class="cls-5" d="M40.54,102.61l-.49-.55A119.78,119.78,0,0,0,61.1,78.43,97.37,97.37,0,0,0,73,53.77c-.79-.55-3.5-2.45-4.33-2.91a1.09,1.09,0,0,0-1.31.16l-.53-.5a1.83,1.83,0,0,1,2.19-.3c1,.55,4.47,3,4.62,3.11l.21.15-.07.24C73.69,54,66,80.26,40.54,102.61Z" transform="translate(-8.03 -4.86)"/><path class="cls-5" d="M72.67,32,72,31.87c0-.35.1-.71.16-1.06.65-4.19,1.33-8.53-1.71-12.52-3.19-4.2-8.32-4.83-11.1-4.83s-7.9.63-11.1,4.83c-3,4-2.35,8.33-1.7,12.52,0,.35.11.71.16,1.06l-.73.11c0-.35-.1-.7-.16-1.06-.64-4.14-1.37-8.83,1.85-13.07,3.39-4.46,8.77-5.12,11.68-5.12s8.3.66,11.69,5.12c3.22,4.24,2.49,8.93,1.84,13.07C72.78,31.28,72.72,31.63,72.67,32Z" transform="translate(-8.03 -4.86)"/><path class="cls-5" d="M58,70.25C50.82,64.46,46.39,58.9,44.84,53.73l.7-.21a24.49,24.49,0,0,0,5.05,9.28c2,2.32,4.89,4.46,7.9,6.88Z" transform="translate(-8.03 -4.86)"/><path class="cls-5" d="M54.56,76.42A49.17,49.17,0,0,1,35.35,60.1l.62-.39a39,39,0,0,0,8.3,9.63,48,48,0,0,0,10.6,6.42Z" transform="translate(-8.03 -4.86)"/><path class="cls-5" d="M43.5,103.53l-.38-.62A132.38,132.38,0,0,0,67.59,83.72c1.83-1.88,3.35-4.14,5-6.16,9.56-12.06,10-16.7,10-17.47-.86-.72-6.12-5.12-7.19-5.91a1.52,1.52,0,0,0-1.7-.25l-.4-.61a2.22,2.22,0,0,1,2.53.27c1.19.87,7.1,5.83,7.35,6l.1.08,0,.13c0,.18.73,4.52-10.09,18.17C62,92.07,43.69,103.42,43.5,103.53Z" transform="translate(-8.03 -4.86)"/><path class="cls-6" d="M47.11,104.61l-.3-.66.83-.39.31.67Z" transform="translate(-8.03 -4.86)"/><path class="cls-5" d="M50.66,102.89l-.34-.65c2-1.06,4.12-2.28,6.25-3.64l.39.62C54.82,100.59,52.7,101.82,50.66,102.89Z" transform="translate(-8.03 -4.86)"/><path class="cls-6" d="M60.39,96.93l-.42-.6.6-.42.42.6Z" transform="translate(-8.03 -4.86)"/><path class="cls-5" d="M62.22,95.63,61.79,95c3.56-2.58,7.28-5.57,11.06-8.9C83.32,76.93,87.51,68,87.59,67.47a54.9,54.9,0,0,0-3.51-6.91c-.33-.46-1.14-.3-1.15-.29l-.16-.72a2,2,0,0,1,1.91.58c.35.48,3.64,6.52,3.64,7.36s-4.61,10.06-15,19.2C69.54,90,65.8,93,62.22,95.63Z" transform="translate(-8.03 -4.86)"/><path class="cls-5" d="M85.42,130.14H32c-6.29,0-10.95-2.78-14.25-8.5a10.25,10.25,0,0,1-.88-7.63,3.07,3.07,0,0,1,1.39-1.83c.1-.29.19-.6.29-.91,1.42-4.44,3.56-11.16,11.37-11.16,4.2,0,8.79,1.36,13.66,2.8,6.51,1.92,13.89,4.1,21.61,3.27,3.27-1.13,6.72-2.21,10.46-3.16,9.73-2.46,15.92-2.43,20.06.08,3.14,1.91,5.2,5.29,6.47,10.64,1,4.18.37,7.73-1.84,10.53C96.88,128.59,90.37,130.14,85.42,130.14ZM18.29,113a2.82,2.82,0,0,0-.76,1.23,9.63,9.63,0,0,0,.83,7c3.2,5.54,7.53,8.12,13.61,8.12H85.42c4.78,0,11-1.47,14.31-5.59,2.07-2.61,2.64-6,1.7-9.9-1.22-5.15-3.17-8.39-6.13-10.18-4-2.41-10-2.4-19.5,0a168.22,168.22,0,0,0-20.19,6.8c-7.2,2.79-14,5.42-22,7-7.23,1.38-11.06,0-13-1.48A6.27,6.27,0,0,1,18.29,113Zm.61-.54a5.25,5.25,0,0,0,2.1,2.93c1.82,1.35,5.45,2.68,12.43,1.35,8-1.52,14.75-4.14,21.92-6.91,2.37-.92,4.78-1.86,7.28-2.77-6.9.19-13.44-1.74-19.29-3.47-4.81-1.42-9.36-2.77-13.45-2.77-7.27,0-9.23,6.16-10.67,10.65C19.11,111.83,19,112.17,18.9,112.48Z" transform="translate(-8.03 -4.86)"/><path class="cls-5" d="M31.23,130.12l-6.51-1.88c11.55,2,21.45-4.09,28.92-10.43,6.7-5.68,14-12.36,24-15.28l.21.71c-9.87,2.87-17.4,9.26-24,14.89C46.56,124.3,39.7,130.12,31.23,130.12Z" transform="translate(-8.03 -4.86)"/><path class="cls-5" d="M53,129.86l-2.17-.46c5.26,0,9.58-4.63,14-10.49,4.71-6.24,10.57-14,20.6-17.61l2.91.64c-12,3.67-17.62,9.86-22.52,16.34C61.44,124.07,58.87,129.13,53,129.86Z" transform="translate(-8.03 -4.86)"/><path class="cls-5" d="M51.8,111.92c-4.26-1.18-7.12-4-10.1-6.24A23.41,23.41,0,0,0,32.21,101l.15-.72c3.74.79,6.56,3,9.55,5.25s6,4.57,10.08,5.72Z" transform="translate(-8.03 -4.86)"/><path class="cls-5" d="M42.09,97.79a3.6,3.6,0,0,1-3.75-2.49,47.32,47.32,0,0,1-1.53-7.79A30.27,30.27,0,0,0,36.19,84c-.06-.28-.11-.5-.14-.68s-.08-.37-.13-.56c-.14-.56-.29-1.13.17-1.34a1.11,1.11,0,0,1,.95.05,2.21,2.21,0,0,1,1.1,1.64,17.75,17.75,0,0,0,.69,2.33l.13.34a4.68,4.68,0,0,0,.18.48,7.75,7.75,0,0,1,.57,2l-.73.07a6.83,6.83,0,0,0-.53-1.84c-.06-.17-.13-.34-.18-.5l-.12-.33a16.25,16.25,0,0,1-.72-2.42,1.61,1.61,0,0,0-.68-1.14,1,1,0,0,0-.23-.07c0,.14.07.35.11.51a4.61,4.61,0,0,1,.14.62c0,.17.08.37.14.64a32.74,32.74,0,0,1,.63,3.62A48.18,48.18,0,0,0,39,95.07c.57,1.81,2.51,2.43,5.18,1.64a6,6,0,0,0,4.23-4A21.16,21.16,0,0,0,48.13,88C48,87.38,48,86.82,48,86.33a4.8,4.8,0,0,0-.24-1.47,1.37,1.37,0,0,0-.36.13,1.48,1.48,0,0,0-.72,1,6.51,6.51,0,0,0,.08,1.59c.11,1,.17,1.5-.05,1.82a3.86,3.86,0,0,1-1,.88c-.33.22-.74.5-1.21.87a1.63,1.63,0,0,0-.51.74,11.29,11.29,0,0,1-.75,1.57A2.88,2.88,0,0,1,44,90.57c.48-.39.91-.68,1.25-.91a3.55,3.55,0,0,0,.84-.68A5,5,0,0,0,46,87.66a6.78,6.78,0,0,1-.07-1.82,2.17,2.17,0,0,1,1.53-1.66.82.82,0,0,1,.87.25,4.37,4.37,0,0,1,.37,1.84c0,.48.09,1,.17,1.58a20.66,20.66,0,0,1,.32,5,6.72,6.72,0,0,1-4.74,4.6A8.77,8.77,0,0,1,42.09,97.79Z" transform="translate(-8.03 -4.86)"/><path class="cls-5" d="M45.79,89.61c0-.07-.84-1.68-1-2.23a4.13,4.13,0,0,0-1.51.08l-.88.13a6.34,6.34,0,0,0-3.69,1.76s-.1-.94.18-1.15a7.79,7.79,0,0,1,3.42-1.34l.86-.12c1.1-.17,2.05-.31,2.31.38.19.51,1,2.15,1,2.16Z" transform="translate(-8.03 -4.86)"/><path class="cls-5" d="M40.56,87.59a7.51,7.51,0,0,0-.79-2.74c-.12-.25-.25-.51-.37-.82a7.13,7.13,0,0,1-.47-1.58c0-.24-.11-.52-.21-.92a1.59,1.59,0,0,0-.91-1.11c0,.17,0,.39.07.52s0,.27,0,.37l0,.15a15.33,15.33,0,0,0,.25,1.86l-.71.19a14,14,0,0,1-.27-2l0-.15c0-.09,0-.2-.05-.32-.09-.56-.21-1.26.33-1.39a2,2,0,0,1,1.94,1.67c.12.42.17.71.22,1a7,7,0,0,0,.44,1.46c.12.28.23.54.35.78a8.14,8.14,0,0,1,.86,3Z" transform="translate(-8.03 -4.86)"/><path class="cls-5" d="M42.37,87.25s-.47-2.07-.78-2.94a12.19,12.19,0,0,1-.48-2.19c0-.25-.08-.51-.13-.77a3.08,3.08,0,0,0-.85-1.84.88.88,0,0,0-.63-.09,10.85,10.85,0,0,0,.27,2.18c.06.34.08.65.11,1A4.24,4.24,0,0,0,40.19,84l-.66.31a5.13,5.13,0,0,1-.38-1.72,7.29,7.29,0,0,0-.11-.88c-.37-2.12-.3-2.49-.18-2.7a.66.66,0,0,1,.46-.32,1.65,1.65,0,0,1,1.2.18,3.57,3.57,0,0,1,1.19,2.33q.06.41.12.78a11.71,11.71,0,0,0,.46,2.06c.32.91.78,3,.8,3Z" transform="translate(-8.03 -4.86)"/><path class="cls-5" d="M44.54,87.18a3.81,3.81,0,0,0-.44-1,4.15,4.15,0,0,1-.35-.7c-.11-.3-.21-.7-.32-1.11a11.49,11.49,0,0,0-.38-1.26,3.47,3.47,0,0,1-.23-1.22c0-.29,0-.65-.11-1.16-.14-1-.58-1.14-.83-1.17a2.26,2.26,0,0,0,0,.26c0,.15,0,.3,0,.47l0,.57a6.32,6.32,0,0,0,0,1.56l-.72.11a6.7,6.7,0,0,1,0-1.72c0-.18,0-.36,0-.53a2.87,2.87,0,0,0,0-.42c0-.36,0-.66.18-.88a.56.56,0,0,1,.46-.16c.52,0,1.43.28,1.64,1.81.08.54.1.91.12,1.21a2.91,2.91,0,0,0,.18,1,12.47,12.47,0,0,1,.41,1.36c.1.39.2.77.3,1a3.49,3.49,0,0,0,.29.58A4.22,4.22,0,0,1,45.25,87Z" transform="translate(-8.03 -4.86)"/><path class="cls-5" d="M40.42,91.76A3.77,3.77,0,0,1,41.7,90c1.35-.89,2.69-1.59,4.37-1.17l-.18.71c-1.68-.42-3,.53-4.57,1.62Z" transform="translate(-8.03 -4.86)"/><path class="cls-5" d="M28.43,92.29a3.32,3.32,0,0,1,1-2,18.65,18.65,0,0,1,2.08-1.65c2-1.37,4.12-.76,6.05.1l-.3.67c-1.62-.72-3.51-1.39-5.34-.16A19.72,19.72,0,0,0,28.43,92.29Z" transform="translate(-8.03 -4.86)"/><path class="cls-5" d="M36.44,99.08c-3,0-6.83-.52-8.53-2-1.86-1.6-1.8-3-.66-6.71s5-19.23,5-19.39l.71.18c0,.16-3.87,15.75-5,19.43s-1.05,4.65.44,5.93,5.31,1.82,8,1.82a28.54,28.54,0,0,0,8.61-1.94l.27.68A28.79,28.79,0,0,1,36.44,99.08Z" transform="translate(-8.03 -4.86)"/><path class="cls-5" d="M41.41,79.22l-.63-2.8.72-.16s.39,1.76.63,2.8Z" transform="translate(-8.03 -4.86)"/><path class="cls-5" d="M67.4,99.6a5.56,5.56,0,0,1-.9-1.45,2.28,2.28,0,0,0-1.89-1.72,9.77,9.77,0,0,1-2.78-.77l-.22-.13c-.12-.07-.33-.22-.42-.21a1.21,1.21,0,0,0,0,.85,1.43,1.43,0,0,0,.83.91,7.58,7.58,0,0,0,1,.35c.7.22,1.31.42,1.57,1.38,0,0-1-.34-1.2-.46a4.17,4.17,0,0,0-.59-.22,7.13,7.13,0,0,1-1-.38,2.19,2.19,0,0,1-1.23-1.38A1.88,1.88,0,0,1,60.57,95c.42-.66,1.1-.25,1.42,0l.19.11a8.79,8.79,0,0,0,2.51.69,3,3,0,0,1,2.49,2.2,8.73,8.73,0,0,0,1.94,2.44A2.68,2.68,0,0,1,67.4,99.6Z" transform="translate(-8.03 -4.86)"/><path class="cls-5" d="M58.61,103.8c-.33-.45-.66-.81-1-1.16a8.72,8.72,0,0,1-1.2-1.53A2.45,2.45,0,0,1,57.07,98a10.46,10.46,0,0,0,1.16-1.63c.41-.68.63-1,.9-1.12a.63.63,0,0,1,.6.11,2.75,2.75,0,0,1,.92,1.82,4.27,4.27,0,0,1-.79,1.75l-.23.39c0,.09.16.56.79,1a2,2,0,0,0,2.23.16.77.77,0,0,0,.41-.55,2.86,2.86,0,0,0-.27-1.76l.6-.43a3.6,3.6,0,0,1,.38,2.37,1.5,1.5,0,0,1-.79,1,2.79,2.79,0,0,1-3-.2c-.75-.48-1.35-1.29-1-1.91.05-.11.15-.26.26-.45a4.25,4.25,0,0,0,.67-1.38,2.11,2.11,0,0,0-.56-1.17c-.11.13-.32.48-.5.76a10.46,10.46,0,0,1-1.25,1.76c-.84.86-1,1.5-.53,2.28a8.19,8.19,0,0,0,1.11,1.41l.23.25C58.66,102.69,58.61,103.8,58.61,103.8Z" transform="translate(-8.03 -4.86)"/><path class="cls-5" d="M60.75,105.47a5.06,5.06,0,0,1-.74,0,21.78,21.78,0,0,0-2.87-.16c-.7,0-1.37,0-1.88-.08a16.59,16.59,0,0,0-2.12,0,13.35,13.35,0,0,1-1.54,0,18,18,0,0,1-3.9-.87.55.55,0,0,1-.28-.48c0-.26.13-.63,1.15-1.33a4.1,4.1,0,0,1,2.73-.21h.09a5.84,5.84,0,0,0,1.7-.1c.38,0,.82-.11,1.32-.15,1.29-.09,3.36-.08,3.45-.08v.74s-2.12,0-3.39.07c-.48,0-.88.09-1.26.15a6.73,6.73,0,0,1-1.9.1l-.09,0a4,4,0,0,0-2.22.09,3.83,3.83,0,0,0-.78.65,22.71,22.71,0,0,0,3.46.7,14.08,14.08,0,0,0,1.44,0,16.56,16.56,0,0,1,2.23,0c.48,0,1.12.06,1.81.07a23.46,23.46,0,0,1,3,.18,27.09,27.09,0,0,0,4.61-.3c1.38-.16,2.69-.3,3.58-.32a52.63,52.63,0,0,0,8-1.22c1.49-.35,6.62-1.87,9.06-3.43a36.27,36.27,0,0,0,3.92-2.8l.25-.2a2.54,2.54,0,0,0,.22-2.54,84.41,84.41,0,0,1-2.31-8.61,119.8,119.8,0,0,0-3.08-11.75l.67-.3a119.59,119.59,0,0,1,3.13,11.9,83.53,83.53,0,0,0,2.27,8.5A3.14,3.14,0,0,1,90,97l-.23.19a38.07,38.07,0,0,1-4,2.85c-2.56,1.62-7.71,3.15-9.29,3.52a51.61,51.61,0,0,1-8.12,1.24c-.85,0-2.14.16-3.51.32S61.78,105.47,60.75,105.47Z" transform="translate(-8.03 -4.86)"/><path class="cls-5" d="M67.65,99.62h-.06v-.73h.05c2,0,4.61-1.86,6.23-3.61.17-.18.34-.36.51-.56C76,93,78,90.74,81.78,90.37a7.74,7.74,0,0,1,3.37.39,4.52,4.52,0,0,1,2.67,2.65,7.11,7.11,0,0,0-6-2.31c-3.49.34-5.31,2.35-6.91,4.12l-.52.56C72.63,97.7,69.85,99.62,67.65,99.62Z" transform="translate(-8.03 -4.86)"/><path class="cls-5" d="M77.59,92.57l-.72-.13C78,85.92,79.13,80,79.14,80l.72.14C79.85,80.15,78.71,86.05,77.59,92.57Z" transform="translate(-8.03 -4.86)"/><path class="cls-5" d="M62,13.58l-.36-.64c1.14-.63,1.52-1.75,1.27-3.7a4.68,4.68,0,0,0-4.41,3.94l-.73-.1a5.47,5.47,0,0,1,5.44-4.6h.32l0,.32C63.84,10.46,63.9,12.51,62,13.58Z" transform="translate(-8.03 -4.86)"/><path class="cls-5" d="M56.53,13.59c-2-1.09-1.86-3.26-1.61-4.8l0-.32h.32a5.9,5.9,0,0,1,4.23,1.92l-.55.49a5.07,5.07,0,0,0-3.38-1.65c-.24,1.92.16,3.08,1.3,3.71Z" transform="translate(-8.03 -4.86)"/><path class="cls-5" d="M62.17,9a4.57,4.57,0,0,0-2.92-3.34A4.65,4.65,0,0,0,56.32,9l-.72-.12A5.34,5.34,0,0,1,59.13,4.9l.12,0,.11,0A5.37,5.37,0,0,1,62.9,8.85L62.17,9l.37-.06Z" transform="translate(-8.03 -4.86)"/><path class="cls-5" d="M61.83,31.1c-.65.22-.59.88-.12,1a20.73,20.73,0,0,0,2.85-.6,12.26,12.26,0,0,1,1.79-.05,5.48,5.48,0,0,0-2-.57A6.59,6.59,0,0,0,61.83,31.1Z" transform="translate(-8.03 -4.86)"/><path class="cls-5" d="M56.78,31.1c.65.22.58.88.12,1A20.82,20.82,0,0,1,54,31.5a12.12,12.12,0,0,0-1.78-.05,5.47,5.47,0,0,1,2-.57A6.63,6.63,0,0,1,56.78,31.1Z" transform="translate(-8.03 -4.86)"/><path class="cls-5" d="M62.75,43.66c-.12,0-.15.21-.36.23a8.24,8.24,0,0,1-1.22,0c-.33,0-1-.5-1.26-.46a4.58,4.58,0,0,0-.62.16,4.12,4.12,0,0,0-.6-.16c-.25,0-.93.41-1.26.46a8.11,8.11,0,0,1-1.21,0c-.21,0-.24-.25-.36-.23s-.24.07-.2.14.14.22.67.29a6.32,6.32,0,0,0,1.64,0,1.45,1.45,0,0,1,.85,0l.48.17.49-.17a1.42,1.42,0,0,1,.84,0,6.33,6.33,0,0,0,1.64,0c.54-.07.63-.21.67-.29S62.86,43.68,62.75,43.66Z" transform="translate(-8.03 -4.86)"/><path class="cls-5" d="M59.3,45.25h0A5.59,5.59,0,0,1,58,45a2,2,0,0,0,1.35.69h0A2,2,0,0,0,60.65,45,5.59,5.59,0,0,1,59.3,45.25Z" transform="translate(-8.03 -4.86)"/><path class="cls-5" d="M58.8,41.82s-.32-.7-.59-.64-.34.38-.21.49S58.59,41.72,58.8,41.82Z" transform="translate(-8.03 -4.86)"/><path class="cls-5" d="M59.8,41.82s.33-.7.6-.64a.31.31,0,0,1,.21.49C60.48,41.79,60,41.72,59.8,41.82Z" transform="translate(-8.03 -4.86)"/><path class="cls-5" d="M60,29.59a.67.67,0,1,1-.67-.67A.67.67,0,0,1,60,29.59Z" transform="translate(-8.03 -4.86)"/><circle class="cls-1" cx="51.28" cy="19.65" r="1.57"/><path class="cls-5" d="M59.3,26.55a2,2,0,1,1,2-2A2,2,0,0,1,59.3,26.55Zm0-3.15a1.12,1.12,0,1,0,1.12,1.12A1.12,1.12,0,0,0,59.3,23.4Z" transform="translate(-8.03 -4.86)"/><circle class="cls-1" cx="51.28" cy="13.79" r="1.57"/><path class="cls-5" d="M59.3,20.69a2,2,0,1,1,2-2A2,2,0,0,1,59.3,20.69Zm0-3.15a1.12,1.12,0,1,0,1.12,1.12A1.12,1.12,0,0,0,59.3,17.54Z" transform="translate(-8.03 -4.86)"/><circle class="cls-1" cx="51.28" cy="8.09" r="1.57"/><path class="cls-5" d="M59.3,15a2,2,0,1,1,2-2A2,2,0,0,1,59.3,15Zm0-3.14A1.12,1.12,0,1,0,60.42,13,1.11,1.11,0,0,0,59.3,11.84Z" transform="translate(-8.03 -4.86)"/><path class="cls-1" d="M68.48,15.17a1.57,1.57,0,1,1-1.57-1.58A1.57,1.57,0,0,1,68.48,15.17Z" transform="translate(-8.03 -4.86)"/><path class="cls-5" d="M66.91,17.2a2,2,0,1,1,2-2A2,2,0,0,1,66.91,17.2Zm0-3.15A1.12,1.12,0,1,0,68,15.17,1.12,1.12,0,0,0,66.91,14.05Z" transform="translate(-8.03 -4.86)"/><path class="cls-1" d="M53.39,15.17a1.57,1.57,0,1,1-1.57-1.58A1.57,1.57,0,0,1,53.39,15.17Z" transform="translate(-8.03 -4.86)"/><path class="cls-5" d="M51.82,17.2a2,2,0,1,1,2-2A2,2,0,0,1,51.82,17.2Zm0-3.15a1.12,1.12,0,1,0,1.11,1.12A1.12,1.12,0,0,0,51.82,14.05Z" transform="translate(-8.03 -4.86)"/><circle class="cls-1" cx="54.89" cy="19.06" r="1.57"/><path class="cls-5" d="M62.91,26a2,2,0,1,1,2-2A2,2,0,0,1,62.91,26Zm0-3.14A1.12,1.12,0,1,0,64,23.92,1.11,1.11,0,0,0,62.91,22.81Z" transform="translate(-8.03 -4.86)"/><path class="cls-1" d="M67.83,23.4a1.58,1.58,0,1,1-1.58-1.57A1.57,1.57,0,0,1,67.83,23.4Z" transform="translate(-8.03 -4.86)"/><path class="cls-5" d="M66.25,25.43a2,2,0,1,1,2-2A2,2,0,0,1,66.25,25.43Zm0-3.14a1.12,1.12,0,1,0,1.12,1.11A1.11,1.11,0,0,0,66.25,22.29Z" transform="translate(-8.03 -4.86)"/><path class="cls-1" d="M73.64,23.4a1.3,1.3,0,1,1-1.3-1.3A1.3,1.3,0,0,1,73.64,23.4Z" transform="translate(-8.03 -4.86)"/><path class="cls-5" d="M72.34,25.16a1.76,1.76,0,1,1,1.75-1.76A1.76,1.76,0,0,1,72.34,25.16Zm0-2.6a.84.84,0,1,0,0,1.68.84.84,0,1,0,0-1.68Z" transform="translate(-8.03 -4.86)"/><path class="cls-1" d="M71,23.92a1.58,1.58,0,1,1-1.58-1.57A1.58,1.58,0,0,1,71,23.92Z" transform="translate(-8.03 -4.86)"/><path class="cls-5" d="M69.46,26a2,2,0,1,1,2-2A2,2,0,0,1,69.46,26Zm0-3.14a1.12,1.12,0,1,0,1.12,1.11A1.11,1.11,0,0,0,69.46,22.81Z" transform="translate(-8.03 -4.86)"/><circle class="cls-1" cx="63.44" cy="21.68" r="1.57"/><path class="cls-5" d="M71.46,28.58a2,2,0,1,1,2-2A2,2,0,0,1,71.46,28.58Zm0-3.15a1.12,1.12,0,1,0,1.12,1.12A1.12,1.12,0,0,0,71.46,25.43Z" transform="translate(-8.03 -4.86)"/><path class="cls-1" d="M72.76,29.65a1.3,1.3,0,1,1-1.3-1.29A1.3,1.3,0,0,1,72.76,29.65Z" transform="translate(-8.03 -4.86)"/><path class="cls-5" d="M71.46,31.4a1.75,1.75,0,1,1,1.76-1.75A1.75,1.75,0,0,1,71.46,31.4Zm0-2.58a.83.83,0,0,0-.83.83.84.84,0,0,0,.83.84.85.85,0,0,0,.84-.84A.84.84,0,0,0,71.46,28.82Z" transform="translate(-8.03 -4.86)"/><circle class="cls-1" cx="52.85" cy="16.72" r="1.57"/><path class="cls-5" d="M60.88,23.62a2,2,0,1,1,2-2A2,2,0,0,1,60.88,23.62Zm0-3.15A1.12,1.12,0,1,0,62,21.59,1.12,1.12,0,0,0,60.88,20.47Z" transform="translate(-8.03 -4.86)"/><path class="cls-1" d="M65.8,20.86a1.57,1.57,0,1,1-1.57-1.57A1.57,1.57,0,0,1,65.8,20.86Z" transform="translate(-8.03 -4.86)"/><path class="cls-5" d="M64.23,22.89a2,2,0,1,1,2-2A2,2,0,0,1,64.23,22.89Zm0-3.14a1.12,1.12,0,1,0,1.11,1.11A1.12,1.12,0,0,0,64.23,19.75Z" transform="translate(-8.03 -4.86)"/><path class="cls-1" d="M69.05,20.44a1.57,1.57,0,1,1-1.57-1.57A1.57,1.57,0,0,1,69.05,20.44Z" transform="translate(-8.03 -4.86)"/><path class="cls-5" d="M67.48,22.47a2,2,0,1,1,2-2A2,2,0,0,1,67.48,22.47Zm0-3.14a1.12,1.12,0,1,0,1.12,1.11A1.11,1.11,0,0,0,67.48,19.33Z" transform="translate(-8.03 -4.86)"/><path class="cls-1" d="M72.42,20.55A1.58,1.58,0,1,1,70.84,19,1.57,1.57,0,0,1,72.42,20.55Z" transform="translate(-8.03 -4.86)"/><path class="cls-5" d="M70.84,22.58a2,2,0,1,1,2-2A2,2,0,0,1,70.84,22.58Zm0-3.15A1.12,1.12,0,1,0,72,20.55,1.12,1.12,0,0,0,70.84,19.43Z" transform="translate(-8.03 -4.86)"/><circle class="cls-1" cx="54.71" cy="13.15" r="1.57"/><path class="cls-5" d="M62.74,20a2,2,0,1,1,2-2A2,2,0,0,1,62.74,20Zm0-3.14A1.12,1.12,0,1,0,63.85,18,1.12,1.12,0,0,0,62.74,16.9Z" transform="translate(-8.03 -4.86)"/><path class="cls-1" d="M67.66,17.44a1.57,1.57,0,1,1-1.57-1.57A1.57,1.57,0,0,1,67.66,17.44Z" transform="translate(-8.03 -4.86)"/><path class="cls-5" d="M66.09,19.47a2,2,0,1,1,2-2A2,2,0,0,1,66.09,19.47Zm0-3.14a1.12,1.12,0,1,0,1.12,1.11A1.11,1.11,0,0,0,66.09,16.33Z" transform="translate(-8.03 -4.86)"/><path class="cls-1" d="M70.79,17.05a1.45,1.45,0,1,1-1.45-1.45A1.45,1.45,0,0,1,70.79,17.05Z" transform="translate(-8.03 -4.86)"/><path class="cls-5" d="M69.34,19a1.91,1.91,0,1,1,1.91-1.91A1.92,1.92,0,0,1,69.34,19Zm0-2.9a1,1,0,1,0,1,1A1,1,0,0,0,69.34,16.06Z" transform="translate(-8.03 -4.86)"/><circle class="cls-1" cx="52.85" cy="10.45" r="1.57"/><path class="cls-5" d="M60.88,17.34a2,2,0,1,1,2-2A2,2,0,0,1,60.88,17.34Zm0-3.14A1.12,1.12,0,1,0,62,15.31,1.12,1.12,0,0,0,60.88,14.2Z" transform="translate(-8.03 -4.86)"/><circle class="cls-1" cx="56.09" cy="9.98" r="1.57"/><path class="cls-5" d="M64.11,16.88a2,2,0,1,1,2-2A2,2,0,0,1,64.11,16.88Zm0-3.15a1.12,1.12,0,1,0,1.12,1.11A1.11,1.11,0,0,0,64.11,13.73Z" transform="translate(-8.03 -4.86)"/><circle class="cls-1" cx="47.66" cy="19.06" r="1.57"/><path class="cls-5" d="M55.69,26a2,2,0,1,1,2-2A2,2,0,0,1,55.69,26Zm0-3.14a1.12,1.12,0,1,0,1.12,1.11A1.11,1.11,0,0,0,55.69,22.81Z" transform="translate(-8.03 -4.86)"/><path class="cls-1" d="M50.78,23.4a1.58,1.58,0,1,0,1.57-1.57A1.57,1.57,0,0,0,50.78,23.4Z" transform="translate(-8.03 -4.86)"/><path class="cls-5" d="M52.35,25.43a2,2,0,1,1,2-2A2,2,0,0,1,52.35,25.43Zm0-3.14a1.12,1.12,0,1,0,1.12,1.11A1.11,1.11,0,0,0,52.35,22.29Z" transform="translate(-8.03 -4.86)"/><path class="cls-1" d="M45,23.4a1.3,1.3,0,1,0,1.3-1.3A1.3,1.3,0,0,0,45,23.4Z" transform="translate(-8.03 -4.86)"/><path class="cls-5" d="M46.27,25.16A1.76,1.76,0,1,1,48,23.4,1.76,1.76,0,0,1,46.27,25.16Zm0-2.6a.84.84,0,1,0,.84.84A.85.85,0,0,0,46.27,22.56Z" transform="translate(-8.03 -4.86)"/><circle class="cls-1" cx="41.12" cy="19.06" r="1.57"/><path class="cls-5" d="M49.14,26a2,2,0,1,1,2-2A2,2,0,0,1,49.14,26Zm0-3.14a1.12,1.12,0,1,0,1.12,1.11A1.11,1.11,0,0,0,49.14,22.81Z" transform="translate(-8.03 -4.86)"/><circle class="cls-1" cx="39.12" cy="21.68" r="1.57"/><path class="cls-5" d="M47.14,28.58a2,2,0,1,1,2-2A2,2,0,0,1,47.14,28.58Zm0-3.15a1.12,1.12,0,1,0,1.12,1.12A1.12,1.12,0,0,0,47.14,25.43Z" transform="translate(-8.03 -4.86)"/><path class="cls-1" d="M45.85,29.65a1.3,1.3,0,1,0,1.29-1.29A1.3,1.3,0,0,0,45.85,29.65Z" transform="translate(-8.03 -4.86)"/><path class="cls-5" d="M47.14,31.4a1.75,1.75,0,1,1,1.76-1.75A1.75,1.75,0,0,1,47.14,31.4Zm0-2.58a.83.83,0,0,0-.83.83.84.84,0,0,0,.83.84.85.85,0,0,0,.84-.84A.84.84,0,0,0,47.14,28.82Z" transform="translate(-8.03 -4.86)"/><circle class="cls-1" cx="49.7" cy="16.72" r="1.57"/><path class="cls-5" d="M57.73,23.62a2,2,0,1,1,2-2A2,2,0,0,1,57.73,23.62Zm0-3.15a1.12,1.12,0,1,0,1.12,1.12A1.12,1.12,0,0,0,57.73,20.47Z" transform="translate(-8.03 -4.86)"/><path class="cls-1" d="M52.8,20.86a1.58,1.58,0,1,0,1.58-1.57A1.57,1.57,0,0,0,52.8,20.86Z" transform="translate(-8.03 -4.86)"/><path class="cls-5" d="M54.38,22.89a2,2,0,1,1,2-2A2,2,0,0,1,54.38,22.89Zm0-3.14a1.12,1.12,0,1,0,1.11,1.11A1.12,1.12,0,0,0,54.38,19.75Z" transform="translate(-8.03 -4.86)"/><path class="cls-1" d="M49.55,20.44a1.58,1.58,0,1,0,1.58-1.57A1.58,1.58,0,0,0,49.55,20.44Z" transform="translate(-8.03 -4.86)"/><path class="cls-5" d="M51.13,22.47a2,2,0,1,1,2-2A2,2,0,0,1,51.13,22.47Zm0-3.14a1.12,1.12,0,1,0,1.11,1.11A1.12,1.12,0,0,0,51.13,19.33Z" transform="translate(-8.03 -4.86)"/><path class="cls-1" d="M46.19,20.55A1.57,1.57,0,1,0,47.76,19,1.57,1.57,0,0,0,46.19,20.55Z" transform="translate(-8.03 -4.86)"/><path class="cls-5" d="M47.76,22.58a2,2,0,1,1,2-2A2,2,0,0,1,47.76,22.58Zm0-3.15a1.12,1.12,0,1,0,1.12,1.12A1.12,1.12,0,0,0,47.76,19.43Z" transform="translate(-8.03 -4.86)"/><circle class="cls-1" cx="47.84" cy="13.15" r="1.57"/><path class="cls-5" d="M55.87,20a2,2,0,1,1,2-2A2,2,0,0,1,55.87,20Zm0-3.14A1.12,1.12,0,1,0,57,18,1.12,1.12,0,0,0,55.87,16.9Z" transform="translate(-8.03 -4.86)"/><circle class="cls-1" cx="44.49" cy="12.58" r="1.57"/><path class="cls-5" d="M52.52,19.47a2,2,0,1,1,2-2A2,2,0,0,1,52.52,19.47Zm0-3.14a1.12,1.12,0,1,0,1.11,1.11A1.12,1.12,0,0,0,52.52,16.33Z" transform="translate(-8.03 -4.86)"/><path class="cls-1" d="M47.81,17.05a1.45,1.45,0,1,0,1.45-1.45A1.45,1.45,0,0,0,47.81,17.05Z" transform="translate(-8.03 -4.86)"/><path class="cls-5" d="M49.26,19a1.91,1.91,0,1,1,1.91-1.91A1.91,1.91,0,0,1,49.26,19Zm0-2.9a1,1,0,1,0,1,1A1,1,0,0,0,49.26,16.06Z" transform="translate(-8.03 -4.86)"/><circle class="cls-1" cx="49.7" cy="10.45" r="1.57"/><path class="cls-5" d="M57.73,17.34a2,2,0,1,1,2-2A2,2,0,0,1,57.73,17.34Zm0-3.14a1.12,1.12,0,1,0,1.12,1.11A1.11,1.11,0,0,0,57.73,14.2Z" transform="translate(-8.03 -4.86)"/><circle class="cls-1" cx="46.47" cy="9.98" r="1.57"/><path class="cls-5" d="M54.49,16.88a2,2,0,1,1,2-2A2,2,0,0,1,54.49,16.88Zm0-3.15a1.12,1.12,0,1,0,1.12,1.11A1.11,1.11,0,0,0,54.49,13.73Z" transform="translate(-8.03 -4.86)"/><path class="cls-5" d="M60.71,12.21l-.21-.3a8.55,8.55,0,0,0,2.55-3.14l.33.15A8.57,8.57,0,0,1,60.71,12.21Z" transform="translate(-8.03 -4.86)"/><path class="cls-5" d="M57.88,12.21A8.64,8.64,0,0,1,55.2,8.92l.33-.15a8.52,8.52,0,0,0,2.56,3.14Z" transform="translate(-8.03 -4.86)"/><path class="cls-5" d="M48.6,87.76l-.29-.22c.19-.26,19.12-26.65,20.55-36.9l.37,0C67.78,61,48.8,87.49,48.6,87.76Z" transform="translate(-8.03 -4.86)"/><path class="cls-5" d="M41,102.67l-.21-.3c10.56-7.47,18.72-18.24,23.71-26,6.29-9.74,10-18.35,10.8-22.56l.36.07c-.85,4.24-4.53,12.9-10.86,22.69C59.84,84.36,51.65,95.16,41,102.67Z" transform="translate(-8.03 -4.86)"/><path class="cls-5" d="M44.14,103.6l-.17-.32c23.44-12.49,39.91-34.7,40.71-42.15l.37,0C84.12,69.78,66.14,91.88,44.14,103.6Z" transform="translate(-8.03 -4.86)"/><path class="cls-5" d="M59.41,67.73C51.85,61,48.73,51.25,48.7,51.15L49,51c0,.1,3.13,9.72,10.61,16.42Z" transform="translate(-8.03 -4.86)"/><path class="cls-5" d="M57.51,71.25C47.1,66.12,42.18,54.71,42.13,54.6l.33-.14c0,.11,4.93,11.39,15.22,16.46Z" transform="translate(-8.03 -4.86)"/><path class="cls-5" d="M54,77.38C41.76,73.51,33.64,61.7,33.56,61.58l.3-.2C33.94,61.5,42,73.2,54.06,77Z" transform="translate(-8.03 -4.86)"/></svg>